<?xml version="1.0" encoding="UTF-8" standalone="no"?>
<!DOCTYPE svg PUBLIC "-//W3C//DTD SVG 1.1//EN"
 "http://www.w3.org/Graphics/SVG/1.1/DTD/svg11.dtd">
<!-- Generated by graphviz version 15.0.0 (20260523.1842)
 -->
<!-- Title: G Pages: 1 -->
<svg width="1215pt" height="499pt"
 viewBox="0.00 0.00 1215.00 499.00" xmlns="http://www.w3.org/2000/svg" xmlns:xlink="http://www.w3.org/1999/xlink">
<g id="graph0" class="graph" transform="scale(1 1) rotate(0) translate(4 495.2)">
<title>G</title>
<polygon fill="white" stroke="none" points="-4,4 -4,-495.2 1210.75,-495.2 1210.75,4 -4,4"/>
<!-- Program -->
<g id="node1" class="node">
<title>Program</title>
<path fill="none" stroke="black" d="M507.03,-491.2C507.03,-491.2 464.47,-491.2 464.47,-491.2 459.68,-491.2 454.88,-486.4 454.88,-481.6 454.88,-481.6 454.88,-472 454.88,-472 454.88,-467.2 459.68,-462.4 464.47,-462.4 464.47,-462.4 507.03,-462.4 507.03,-462.4 511.82,-462.4 516.62,-467.2 516.62,-472 516.62,-472 516.62,-481.6 516.62,-481.6 516.62,-486.4 511.82,-491.2 507.03,-491.2"/>
<text xml:space="preserve" text-anchor="middle" x="485.75" y="-471.78" font-family="Helvetica,sans-Serif" font-size="12.00">Program</text>
</g>
<!-- Function -->
<g id="node2" class="node">
<title>Function</title>
<path fill="none" stroke="black" d="M679.4,-433.4C679.4,-433.4 636.1,-433.4 636.1,-433.4 631.3,-433.4 626.5,-428.6 626.5,-423.8 626.5,-423.8 626.5,-414.2 626.5,-414.2 626.5,-409.4 631.3,-404.6 636.1,-404.6 636.1,-404.6 679.4,-404.6 679.4,-404.6 684.2,-404.6 689,-409.4 689,-414.2 689,-414.2 689,-423.8 689,-423.8 689,-428.6 684.2,-433.4 679.4,-433.4"/>
<text xml:space="preserve" text-anchor="middle" x="657.75" y="-413.98" font-family="Helvetica,sans-Serif" font-size="12.00">Function</text>
</g>
<!-- Program&#45;&gt;Function -->
<g id="edge1" class="edge">
<title>Program&#45;&gt;Function</title>
<path fill="none" stroke="black" d="M516.95,-466.78C542.77,-459.17 580.6,-447.71 617.31,-435.24"/>
<polygon fill="black" stroke="black" points="618.02,-437.95 624.68,-432.71 616.21,-432.66 618.02,-437.95"/>
</g>
<!-- DataDeclaration -->
<g id="node3" class="node">
<title>DataDeclaration</title>
<path fill="none" stroke="black" d="M225.65,-144.4C225.65,-144.4 141.85,-144.4 141.85,-144.4 137.05,-144.4 132.25,-139.6 132.25,-134.8 132.25,-134.8 132.25,-125.2 132.25,-125.2 132.25,-120.4 137.05,-115.6 141.85,-115.6 141.85,-115.6 225.65,-115.6 225.65,-115.6 230.45,-115.6 235.25,-120.4 235.25,-125.2 235.25,-125.2 235.25,-134.8 235.25,-134.8 235.25,-139.6 230.45,-144.4 225.65,-144.4"/>
<text xml:space="preserve" text-anchor="middle" x="183.75" y="-124.97" font-family="Helvetica,sans-Serif" font-size="12.00">DataDeclaration</text>
</g>
<!-- Program&#45;&gt;DataDeclaration -->
<g id="edge2" class="edge">
<title>Program&#45;&gt;DataDeclaration</title>
<path fill="none" stroke="black" d="M454.4,-469.91C381.7,-455.34 207.75,-414.99 207.75,-362.2 207.75,-362.2 207.75,-362.2 207.75,-244.6 207.75,-212.5 198.46,-176.38 191.44,-153.66"/>
<polygon fill="black" stroke="black" points="194.17,-153 189.07,-146.23 188.84,-154.71 194.17,-153"/>
</g>
<!-- TypeSignature -->
<g id="node4" class="node">
<title>TypeSignature</title>
<path fill="none" stroke="black" d="M545.15,-260C545.15,-260 470.35,-260 470.35,-260 465.55,-260 460.75,-255.2 460.75,-250.4 460.75,-250.4 460.75,-240.8 460.75,-240.8 460.75,-236 465.55,-231.2 470.35,-231.2 470.35,-231.2 545.15,-231.2 545.15,-231.2 549.95,-231.2 554.75,-236 554.75,-240.8 554.75,-240.8 554.75,-250.4 554.75,-250.4 554.75,-255.2 549.95,-260 545.15,-260"/>
<text xml:space="preserve" text-anchor="middle" x="507.75" y="-240.58" font-family="Helvetica,sans-Serif" font-size="12.00">TypeSignature</text>
</g>
<!-- Program&#45;&gt;TypeSignature -->
<g id="edge3" class="edge">
<title>Program&#45;&gt;TypeSignature</title>
<path fill="none" stroke="black" d="M487.06,-462.15C490.7,-424.26 500.95,-317.46 505.51,-269.93"/>
<polygon fill="black" stroke="black" points="508.3,-270.21 506.27,-261.98 502.72,-269.67 508.3,-270.21"/>
</g>
<!-- TypeclassDeclaration -->
<g id="node5" class="node">
<title>TypeclassDeclaration</title>
<path fill="none" stroke="black" d="M428.9,-260C428.9,-260 316.6,-260 316.6,-260 311.8,-260 307,-255.2 307,-250.4 307,-250.4 307,-240.8 307,-240.8 307,-236 311.8,-231.2 316.6,-231.2 316.6,-231.2 428.9,-231.2 428.9,-231.2 433.7,-231.2 438.5,-236 438.5,-240.8 438.5,-240.8 438.5,-250.4 438.5,-250.4 438.5,-255.2 433.7,-260 428.9,-260"/>
<text xml:space="preserve" text-anchor="middle" x="372.75" y="-240.58" font-family="Helvetica,sans-Serif" font-size="12.00">TypeclassDeclaration</text>
</g>
<!-- Program&#45;&gt;TypeclassDeclaration -->
<g id="edge4" class="edge">
<title>Program&#45;&gt;TypeclassDeclaration</title>
<path fill="none" stroke="black" d="M479.02,-462.15C460.18,-423.94 406.8,-315.67 383.67,-268.74"/>
<polygon fill="black" stroke="black" points="386.31,-267.76 380.26,-261.83 381.28,-270.24 386.31,-267.76"/>
</g>
<!-- InstanceDeclaration -->
<g id="node6" class="node">
<title>InstanceDeclaration</title>
<path fill="none" stroke="black" d="M609.4,-433.4C609.4,-433.4 506.1,-433.4 506.1,-433.4 501.3,-433.4 496.5,-428.6 496.5,-423.8 496.5,-423.8 496.5,-414.2 496.5,-414.2 496.5,-409.4 501.3,-404.6 506.1,-404.6 506.1,-404.6 609.4,-404.6 609.4,-404.6 614.2,-404.6 619,-409.4 619,-414.2 619,-414.2 619,-423.8 619,-423.8 619,-428.6 614.2,-433.4 609.4,-433.4"/>
<text xml:space="preserve" text-anchor="middle" x="557.75" y="-413.98" font-family="Helvetica,sans-Serif" font-size="12.00">InstanceDeclaration</text>
</g>
<!-- Program&#45;&gt;InstanceDeclaration -->
<g id="edge5" class="edge">
<title>Program&#45;&gt;InstanceDeclaration</title>
<path fill="none" stroke="black" d="M503.55,-462.01C512.29,-455.23 522.97,-446.95 532.54,-439.54"/>
<polygon fill="black" stroke="black" points="534.1,-441.87 538.71,-434.76 530.67,-437.44 534.1,-441.87"/>
</g>
<!-- Name -->
<g id="node7" class="node">
<title>Name</title>
<path fill="none" stroke="black" d="M603.15,-86.6C603.15,-86.6 568.35,-86.6 568.35,-86.6 563.55,-86.6 558.75,-81.8 558.75,-77 558.75,-77 558.75,-67.4 558.75,-67.4 558.75,-62.6 563.55,-57.8 568.35,-57.8 568.35,-57.8 603.15,-57.8 603.15,-57.8 607.95,-57.8 612.75,-62.6 612.75,-67.4 612.75,-67.4 612.75,-77 612.75,-77 612.75,-81.8 607.95,-86.6 603.15,-86.6"/>
<text xml:space="preserve" text-anchor="middle" x="585.75" y="-67.17" font-family="Helvetica,sans-Serif" font-size="12.00">Name</text>
</g>
<!-- Function&#45;&gt;Name -->
<g id="edge6" class="edge">
<title>Function&#45;&gt;Name</title>
<path fill="none" stroke="black" d="M647.36,-404.13C632.97,-383.52 608.75,-343.06 608.75,-304.4 608.75,-304.4 608.75,-304.4 608.75,-186.8 608.75,-154.76 599.85,-118.62 593.12,-95.88"/>
<polygon fill="black" stroke="black" points="595.87,-95.28 590.85,-88.46 590.51,-96.92 595.87,-95.28"/>
</g>
<!-- Expr -->
<g id="node8" class="node">
<title>Expr</title>
<path fill="none" stroke="black" d="M868.15,-375.6C868.15,-375.6 833.35,-375.6 833.35,-375.6 828.55,-375.6 823.75,-370.8 823.75,-366 823.75,-366 823.75,-356.4 823.75,-356.4 823.75,-351.6 828.55,-346.8 833.35,-346.8 833.35,-346.8 868.15,-346.8 868.15,-346.8 872.95,-346.8 877.75,-351.6 877.75,-356.4 877.75,-356.4 877.75,-366 877.75,-366 877.75,-370.8 872.95,-375.6 868.15,-375.6"/>
<text xml:space="preserve" text-anchor="middle" x="850.75" y="-356.18" font-family="Helvetica,sans-Serif" font-size="12.00">Expr</text>
</g>
<!-- Function&#45;&gt;Expr -->
<g id="edge7" class="edge">
<title>Function&#45;&gt;Expr</title>
<path fill="none" stroke="black" d="M689.19,-408.91C723.55,-398.97 778.53,-383.08 814.64,-372.64"/>
<polygon fill="black" stroke="black" points="815.03,-375.44 821.93,-370.53 813.47,-370.06 815.03,-375.44"/>
</g>
<!-- DataDeclaration&#45;&gt;Name -->
<g id="edge8" class="edge">
<title>DataDeclaration&#45;&gt;Name</title>
<path fill="none" stroke="black" d="M235.55,-116.75C237.64,-116.34 239.71,-115.96 241.75,-115.6 353.07,-95.94 486.25,-82.3 549.27,-76.43"/>
<polygon fill="black" stroke="black" points="549.19,-79.25 556.9,-75.73 548.67,-73.68 549.19,-79.25"/>
</g>
<!-- DataType -->
<g id="node9" class="node">
<title>DataType</title>
<path fill="none" stroke="black" d="M148.03,-86.6C148.03,-86.6 99.48,-86.6 99.48,-86.6 94.67,-86.6 89.88,-81.8 89.88,-77 89.88,-77 89.88,-67.4 89.88,-67.4 89.88,-62.6 94.67,-57.8 99.48,-57.8 99.48,-57.8 148.03,-57.8 148.03,-57.8 152.82,-57.8 157.62,-62.6 157.62,-67.4 157.62,-67.4 157.62,-77 157.62,-77 157.62,-81.8 152.82,-86.6 148.03,-86.6"/>
<text xml:space="preserve" text-anchor="middle" x="123.75" y="-67.17" font-family="Helvetica,sans-Serif" font-size="12.00">DataType</text>
</g>
<!-- DataDeclaration&#45;&gt;DataType -->
<g id="edge9" class="edge">
<title>DataDeclaration&#45;&gt;DataType</title>
<path fill="none" stroke="black" d="M168.92,-115.21C161.8,-108.58 153.13,-100.52 145.3,-93.24"/>
<polygon fill="black" stroke="black" points="147.28,-91.26 139.52,-87.87 143.47,-95.36 147.28,-91.26"/>
</g>
<!-- Tag -->
<g id="node10" class="node">
<title>Tag</title>
<path fill="none" stroke="black" d="M768.15,-86.6C768.15,-86.6 733.35,-86.6 733.35,-86.6 728.55,-86.6 723.75,-81.8 723.75,-77 723.75,-77 723.75,-67.4 723.75,-67.4 723.75,-62.6 728.55,-57.8 733.35,-57.8 733.35,-57.8 768.15,-57.8 768.15,-57.8 772.95,-57.8 777.75,-62.6 777.75,-67.4 777.75,-67.4 777.75,-77 777.75,-77 777.75,-81.8 772.95,-86.6 768.15,-86.6"/>
<text xml:space="preserve" text-anchor="middle" x="750.75" y="-67.17" font-family="Helvetica,sans-Serif" font-size="12.00">Tag</text>
</g>
<!-- DataDeclaration&#45;&gt;Tag -->
<g id="edge10" class="edge">
<title>DataDeclaration&#45;&gt;Tag</title>
<path fill="none" stroke="black" d="M235.61,-118.55C242.04,-117.45 248.53,-116.43 254.75,-115.6 414.72,-94.16 456,-101.08 616.75,-86.6 649.62,-83.64 686.99,-79.87 713.89,-77.08"/>
<polygon fill="black" stroke="black" points="714.13,-79.87 721.8,-76.26 713.55,-74.3 714.13,-79.87"/>
</g>
<!-- TypeSignature&#45;&gt;Name -->
<g id="edge11" class="edge">
<title>TypeSignature&#45;&gt;Name</title>
<path fill="none" stroke="black" d="M518.63,-230.87C532.78,-212.32 557.26,-177.73 570.75,-144.4 577.02,-128.89 580.82,-110.37 583.03,-96.11"/>
<polygon fill="black" stroke="black" points="585.75,-96.82 584.1,-88.5 580.21,-96.04 585.75,-96.82"/>
</g>
<!-- TypeHint -->
<g id="node11" class="node">
<title>TypeHint</title>
<path fill="none" stroke="black" d="M442.15,-202.2C442.15,-202.2 397.35,-202.2 397.35,-202.2 392.55,-202.2 387.75,-197.4 387.75,-192.6 387.75,-192.6 387.75,-183 387.75,-183 387.75,-178.2 392.55,-173.4 397.35,-173.4 397.35,-173.4 442.15,-173.4 442.15,-173.4 446.95,-173.4 451.75,-178.2 451.75,-183 451.75,-183 451.75,-192.6 451.75,-192.6 451.75,-197.4 446.95,-202.2 442.15,-202.2"/>
<text xml:space="preserve" text-anchor="middle" x="419.75" y="-182.78" font-family="Helvetica,sans-Serif" font-size="12.00">TypeHint</text>
</g>
<!-- TypeSignature&#45;&gt;TypeHint -->
<g id="edge12" class="edge">
<title>TypeSignature&#45;&gt;TypeHint</title>
<path fill="none" stroke="black" d="M486,-230.81C475,-223.83 461.48,-215.26 449.53,-207.68"/>
<polygon fill="black" stroke="black" points="451.09,-205.36 442.84,-203.44 448.09,-210.09 451.09,-205.36"/>
</g>
<!-- TypeclassDeclaration&#45;&gt;Name -->
<g id="edge13" class="edge">
<title>TypeclassDeclaration&#45;&gt;Name</title>
<path fill="none" stroke="black" d="M343.48,-230.82C297.5,-207.4 217.25,-158.21 254.75,-115.6 273.97,-93.76 466.75,-80.09 548.94,-75.22"/>
<polygon fill="black" stroke="black" points="549.06,-78.01 556.89,-74.75 548.74,-72.42 549.06,-78.01"/>
</g>
<!-- TypeclassDeclaration&#45;&gt;TypeHint -->
<g id="edge14" class="edge">
<title>TypeclassDeclaration&#45;&gt;TypeHint</title>
<path fill="none" stroke="black" d="M384.37,-230.81C389.83,-224.32 396.46,-216.45 402.49,-209.29"/>
<polygon fill="black" stroke="black" points="404.28,-211.51 407.29,-203.59 400,-207.91 404.28,-211.51"/>
</g>
<!-- InstanceDeclaration&#45;&gt;Name -->
<g id="edge15" class="edge">
<title>InstanceDeclaration&#45;&gt;Name</title>
<path fill="none" stroke="black" d="M565.21,-404.1C575.75,-383.13 593.75,-341.85 593.75,-304.4 593.75,-304.4 593.75,-304.4 593.75,-186.8 593.75,-155.28 590.65,-118.97 588.31,-96.05"/>
<polygon fill="black" stroke="black" points="591.12,-95.98 587.49,-88.32 585.55,-96.57 591.12,-95.98"/>
</g>
<!-- InstanceDeclaration&#45;&gt;Expr -->
<g id="edge16" class="edge">
<title>InstanceDeclaration&#45;&gt;Expr</title>
<path fill="none" stroke="black" d="M619.33,-405.27C620.48,-405.05 621.62,-404.82 622.75,-404.6 690.25,-391.37 769.2,-376.91 814.26,-368.76"/>
<polygon fill="black" stroke="black" points="814.48,-371.57 821.85,-367.39 813.48,-366.06 814.48,-371.57"/>
</g>
<!-- InstanceDeclaration&#45;&gt;TypeHint -->
<g id="edge17" class="edge">
<title>InstanceDeclaration&#45;&gt;TypeHint</title>
<path fill="none" stroke="black" d="M548.57,-404.26C530.53,-377.1 489.44,-314.43 457.75,-260 452.45,-250.89 440.26,-227.92 431.11,-210.51"/>
<polygon fill="black" stroke="black" points="433.8,-209.61 427.61,-203.83 428.84,-212.22 433.8,-209.61"/>
</g>
<!-- ExprVariable -->
<g id="node12" class="node">
<title>ExprVariable</title>
<path fill="none" stroke="black" d="M694.27,-202.2C694.27,-202.2 629.23,-202.2 629.23,-202.2 624.42,-202.2 619.62,-197.4 619.62,-192.6 619.62,-192.6 619.62,-183 619.62,-183 619.62,-178.2 624.42,-173.4 629.23,-173.4 629.23,-173.4 694.27,-173.4 694.27,-173.4 699.08,-173.4 703.88,-178.2 703.88,-183 703.88,-183 703.88,-192.6 703.88,-192.6 703.88,-197.4 699.08,-202.2 694.27,-202.2"/>
<text xml:space="preserve" text-anchor="middle" x="661.75" y="-182.78" font-family="Helvetica,sans-Serif" font-size="12.00">ExprVariable</text>
</g>
<!-- Expr&#45;&gt;ExprVariable -->
<g id="edge18" class="edge">
<title>Expr&#45;&gt;ExprVariable</title>
<path fill="none" stroke="black" d="M823.47,-359.09C770.27,-356.28 655.78,-346.93 631.75,-317.8 606.29,-286.94 629.3,-238.43 646.65,-210.53"/>
<polygon fill="black" stroke="black" points="648.98,-212.08 650.97,-203.84 644.28,-209.04 648.98,-212.08"/>
</g>
<!-- ExprLiteral -->
<g id="node13" class="node">
<title>ExprLiteral</title>
<path fill="none" stroke="black" d="M1129.03,-202.2C1129.03,-202.2 1074.47,-202.2 1074.47,-202.2 1069.67,-202.2 1064.88,-197.4 1064.88,-192.6 1064.88,-192.6 1064.88,-183 1064.88,-183 1064.88,-178.2 1069.67,-173.4 1074.47,-173.4 1074.47,-173.4 1129.03,-173.4 1129.03,-173.4 1133.83,-173.4 1138.62,-178.2 1138.62,-183 1138.62,-183 1138.62,-192.6 1138.62,-192.6 1138.62,-197.4 1133.83,-202.2 1129.03,-202.2"/>
<text xml:space="preserve" text-anchor="middle" x="1101.75" y="-182.78" font-family="Helvetica,sans-Serif" font-size="12.00">ExprLiteral</text>
</g>
<!-- Expr&#45;&gt;ExprLiteral -->
<g id="edge19" class="edge">
<title>Expr&#45;&gt;ExprLiteral</title>
<path fill="none" stroke="black" d="M877.94,-359.33C934.22,-356.93 1060.58,-348.2 1088.75,-317.8 1115.17,-289.3 1111.87,-240.57 1106.91,-211.86"/>
<polygon fill="black" stroke="black" points="1109.68,-211.42 1105.43,-204.09 1104.18,-212.47 1109.68,-211.42"/>
</g>
<!-- ExprConstructor -->
<g id="node14" class="node">
<title>ExprConstructor</title>
<path fill="none" stroke="black" d="M792.27,-317.8C792.27,-317.8 709.23,-317.8 709.23,-317.8 704.42,-317.8 699.62,-313 699.62,-308.2 699.62,-308.2 699.62,-298.6 699.62,-298.6 699.62,-293.8 704.42,-289 709.23,-289 709.23,-289 792.27,-289 792.27,-289 797.08,-289 801.88,-293.8 801.88,-298.6 801.88,-298.6 801.88,-308.2 801.88,-308.2 801.88,-313 797.08,-317.8 792.27,-317.8"/>
<text xml:space="preserve" text-anchor="middle" x="750.75" y="-298.38" font-family="Helvetica,sans-Serif" font-size="12.00">ExprConstructor</text>
</g>
<!-- Expr&#45;&gt;ExprConstructor -->
<g id="edge20" class="edge">
<title>Expr&#45;&gt;ExprConstructor</title>
<path fill="none" stroke="black" d="M826.03,-346.41C813.29,-339.3 797.58,-330.53 783.81,-322.85"/>
<polygon fill="black" stroke="black" points="785.2,-320.42 776.85,-318.97 782.47,-325.31 785.2,-320.42"/>
</g>
<!-- ExprApplication -->
<g id="node15" class="node">
<title>ExprApplication</title>
<path fill="none" stroke="black" d="M1067.53,-317.8C1067.53,-317.8 985.98,-317.8 985.98,-317.8 981.17,-317.8 976.38,-313 976.38,-308.2 976.38,-308.2 976.38,-298.6 976.38,-298.6 976.38,-293.8 981.17,-289 985.98,-289 985.98,-289 1067.53,-289 1067.53,-289 1072.33,-289 1077.12,-293.8 1077.12,-298.6 1077.12,-298.6 1077.12,-308.2 1077.12,-308.2 1077.12,-313 1072.33,-317.8 1067.53,-317.8"/>
<text xml:space="preserve" text-anchor="middle" x="1026.75" y="-298.38" font-family="Helvetica,sans-Serif" font-size="12.00">ExprApplication</text>
</g>
<!-- Expr&#45;&gt;ExprApplication -->
<g id="edge21" class="edge">
<title>Expr&#45;&gt;ExprApplication</title>
<path fill="none" stroke="black" d="M878.19,-350.86C903.12,-342.76 940.6,-330.83 971.69,-321.09"/>
<polygon fill="black" stroke="black" points="972.45,-323.78 979.25,-318.72 970.77,-318.44 972.45,-323.78"/>
</g>
<!-- ExprLet -->
<g id="node16" class="node">
<title>ExprLet</title>
<path fill="none" stroke="black" d="M682.77,-317.8C682.77,-317.8 644.73,-317.8 644.73,-317.8 639.92,-317.8 635.12,-313 635.12,-308.2 635.12,-308.2 635.12,-298.6 635.12,-298.6 635.12,-293.8 639.92,-289 644.73,-289 644.73,-289 682.77,-289 682.77,-289 687.58,-289 692.38,-293.8 692.38,-298.6 692.38,-298.6 692.38,-308.2 692.38,-308.2 692.38,-313 687.58,-317.8 682.77,-317.8"/>
<text xml:space="preserve" text-anchor="middle" x="663.75" y="-298.38" font-family="Helvetica,sans-Serif" font-size="12.00">ExprLet</text>
</g>
<!-- Expr&#45;&gt;ExprLet -->
<g id="edge22" class="edge">
<title>Expr&#45;&gt;ExprLet</title>
<path fill="none" stroke="black" d="M823.49,-354.32C793.82,-347.32 744.98,-334.79 701.46,-320.53"/>
<polygon fill="black" stroke="black" points="702.46,-317.91 693.98,-318.04 700.68,-323.22 702.46,-317.91"/>
</g>
<!-- ExprLambda -->
<g id="node17" class="node">
<title>ExprLambda</title>
<path fill="none" stroke="black" d="M883.27,-317.8C883.27,-317.8 818.23,-317.8 818.23,-317.8 813.42,-317.8 808.62,-313 808.62,-308.2 808.62,-308.2 808.62,-298.6 808.62,-298.6 808.62,-293.8 813.42,-289 818.23,-289 818.23,-289 883.27,-289 883.27,-289 888.08,-289 892.88,-293.8 892.88,-298.6 892.88,-298.6 892.88,-308.2 892.88,-308.2 892.88,-313 888.08,-317.8 883.27,-317.8"/>
<text xml:space="preserve" text-anchor="middle" x="850.75" y="-298.38" font-family="Helvetica,sans-Serif" font-size="12.00">ExprLambda</text>
</g>
<!-- Expr&#45;&gt;ExprLambda -->
<g id="edge23" class="edge">
<title>Expr&#45;&gt;ExprLambda</title>
<path fill="none" stroke="black" d="M848.45,-346.41C848.16,-340.6 848.06,-333.68 848.17,-327.15"/>
<polygon fill="black" stroke="black" points="850.95,-327.63 848.41,-319.55 845.35,-327.45 850.95,-327.63"/>
</g>
<!-- ExprCase -->
<g id="node18" class="node">
<title>ExprCase</title>
<path fill="none" stroke="black" d="M959.77,-317.8C959.77,-317.8 909.73,-317.8 909.73,-317.8 904.92,-317.8 900.12,-313 900.12,-308.2 900.12,-308.2 900.12,-298.6 900.12,-298.6 900.12,-293.8 904.92,-289 909.73,-289 909.73,-289 959.77,-289 959.77,-289 964.58,-289 969.38,-293.8 969.38,-298.6 969.38,-298.6 969.38,-308.2 969.38,-308.2 969.38,-313 964.58,-317.8 959.77,-317.8"/>
<text xml:space="preserve" text-anchor="middle" x="934.75" y="-298.38" font-family="Helvetica,sans-Serif" font-size="12.00">ExprCase</text>
</g>
<!-- Expr&#45;&gt;ExprCase -->
<g id="edge24" class="edge">
<title>Expr&#45;&gt;ExprCase</title>
<path fill="none" stroke="black" d="M869.21,-346.41C879.36,-339.43 892.2,-330.86 903.82,-323.28"/>
<polygon fill="black" stroke="black" points="905.17,-325.75 910.36,-319.05 902.12,-321.05 905.17,-325.75"/>
</g>
<!-- TypeHintVar -->
<g id="node30" class="node">
<title>TypeHintVar</title>
<path fill="none" stroke="black" d="M557.77,-144.4C557.77,-144.4 495.73,-144.4 495.73,-144.4 490.93,-144.4 486.12,-139.6 486.12,-134.8 486.12,-134.8 486.12,-125.2 486.12,-125.2 486.12,-120.4 490.93,-115.6 495.73,-115.6 495.73,-115.6 557.77,-115.6 557.77,-115.6 562.58,-115.6 567.38,-120.4 567.38,-125.2 567.38,-125.2 567.38,-134.8 567.38,-134.8 567.38,-139.6 562.58,-144.4 557.77,-144.4"/>
<text xml:space="preserve" text-anchor="middle" x="526.75" y="-124.97" font-family="Helvetica,sans-Serif" font-size="12.00">TypeHintVar</text>
</g>
<!-- TypeHint&#45;&gt;TypeHintVar -->
<g id="edge47" class="edge">
<title>TypeHint&#45;&gt;TypeHintVar</title>
<path fill="none" stroke="black" d="M446.2,-173.01C460.09,-165.76 477.28,-156.8 492.21,-149.01"/>
<polygon fill="black" stroke="black" points="493.09,-151.71 498.89,-145.53 490.5,-146.74 493.09,-151.71"/>
</g>
<!-- TypeHintConstructor -->
<g id="node31" class="node">
<title>TypeHintConstructor</title>
<path fill="none" stroke="black" d="M115.9,-144.4C115.9,-144.4 9.6,-144.4 9.6,-144.4 4.8,-144.4 0,-139.6 0,-134.8 0,-134.8 0,-125.2 0,-125.2 0,-120.4 4.8,-115.6 9.6,-115.6 9.6,-115.6 115.9,-115.6 115.9,-115.6 120.7,-115.6 125.5,-120.4 125.5,-125.2 125.5,-125.2 125.5,-134.8 125.5,-134.8 125.5,-139.6 120.7,-144.4 115.9,-144.4"/>
<text xml:space="preserve" text-anchor="middle" x="62.75" y="-124.97" font-family="Helvetica,sans-Serif" font-size="12.00">TypeHintConstructor</text>
</g>
<!-- TypeHint&#45;&gt;TypeHintConstructor -->
<g id="edge48" class="edge">
<title>TypeHint&#45;&gt;TypeHintConstructor</title>
<path fill="none" stroke="black" d="M387.48,-182.64C335.51,-175.82 229.88,-161.47 135,-145.29"/>
<polygon fill="black" stroke="black" points="135.71,-142.57 127.35,-143.97 134.76,-148.09 135.71,-142.57"/>
</g>
<!-- TypeHintArrow -->
<g id="node32" class="node">
<title>TypeHintArrow</title>
<path fill="none" stroke="black" d="M343.9,-144.4C343.9,-144.4 267.6,-144.4 267.6,-144.4 262.8,-144.4 258,-139.6 258,-134.8 258,-134.8 258,-125.2 258,-125.2 258,-120.4 262.8,-115.6 267.6,-115.6 267.6,-115.6 343.9,-115.6 343.9,-115.6 348.7,-115.6 353.5,-120.4 353.5,-125.2 353.5,-125.2 353.5,-134.8 353.5,-134.8 353.5,-139.6 348.7,-144.4 343.9,-144.4"/>
<text xml:space="preserve" text-anchor="middle" x="305.75" y="-124.97" font-family="Helvetica,sans-Serif" font-size="12.00">TypeHintArrow</text>
</g>
<!-- TypeHint&#45;&gt;TypeHintArrow -->
<g id="edge49" class="edge">
<title>TypeHint&#45;&gt;TypeHintArrow</title>
<path fill="none" stroke="black" d="M391.57,-173.01C376.63,-165.7 358.12,-156.63 342.11,-148.8"/>
<polygon fill="black" stroke="black" points="343.78,-146.5 335.36,-145.49 341.31,-151.53 343.78,-146.5"/>
</g>
<!-- TypeHintConstraint -->
<g id="node33" class="node">
<title>TypeHintConstraint</title>
<path fill="none" stroke="black" d="M469.52,-144.4C469.52,-144.4 369.98,-144.4 369.98,-144.4 365.18,-144.4 360.38,-139.6 360.38,-134.8 360.38,-134.8 360.38,-125.2 360.38,-125.2 360.38,-120.4 365.18,-115.6 369.98,-115.6 369.98,-115.6 469.52,-115.6 469.52,-115.6 474.32,-115.6 479.12,-120.4 479.12,-125.2 479.12,-125.2 479.12,-134.8 479.12,-134.8 479.12,-139.6 474.32,-144.4 469.52,-144.4"/>
<text xml:space="preserve" text-anchor="middle" x="419.75" y="-124.97" font-family="Helvetica,sans-Serif" font-size="12.00">TypeHintConstraint</text>
</g>
<!-- TypeHint&#45;&gt;TypeHintConstraint -->
<g id="edge50" class="edge">
<title>TypeHint&#45;&gt;TypeHintConstraint</title>
<path fill="none" stroke="black" d="M419.75,-173.01C419.75,-167.2 419.75,-160.28 419.75,-153.75"/>
<polygon fill="black" stroke="black" points="422.55,-154.15 419.75,-146.15 416.95,-154.15 422.55,-154.15"/>
</g>
<!-- ExprVariable&#45;&gt;Name -->
<g id="edge25" class="edge">
<title>ExprVariable&#45;&gt;Name</title>
<path fill="none" stroke="black" d="M652.73,-173.32C639.78,-153.96 615.75,-118.04 600.27,-94.91"/>
<polygon fill="black" stroke="black" points="602.61,-93.36 595.83,-88.27 597.95,-96.48 602.61,-93.36"/>
</g>
<!-- Literal -->
<g id="node26" class="node">
<title>Literal</title>
<path fill="none" stroke="black" d="M1089.15,-86.6C1089.15,-86.6 1054.35,-86.6 1054.35,-86.6 1049.55,-86.6 1044.75,-81.8 1044.75,-77 1044.75,-77 1044.75,-67.4 1044.75,-67.4 1044.75,-62.6 1049.55,-57.8 1054.35,-57.8 1054.35,-57.8 1089.15,-57.8 1089.15,-57.8 1093.95,-57.8 1098.75,-62.6 1098.75,-67.4 1098.75,-67.4 1098.75,-77 1098.75,-77 1098.75,-81.8 1093.95,-86.6 1089.15,-86.6"/>
<text xml:space="preserve" text-anchor="middle" x="1071.75" y="-67.17" font-family="Helvetica,sans-Serif" font-size="12.00">Literal</text>
</g>
<!-- ExprLiteral&#45;&gt;Literal -->
<g id="edge43" class="edge">
<title>ExprLiteral&#45;&gt;Literal</title>
<path fill="none" stroke="black" d="M1100.71,-172.91C1099.37,-158.38 1096.49,-135.03 1090.75,-115.6 1088.74,-108.79 1085.87,-101.65 1082.96,-95.22"/>
<polygon fill="black" stroke="black" points="1085.66,-94.37 1079.7,-88.34 1080.6,-96.77 1085.66,-94.37"/>
</g>
<!-- ExprConstructor&#45;&gt;Tag -->
<g id="edge26" class="edge">
<title>ExprConstructor&#45;&gt;Tag</title>
<path fill="none" stroke="black" d="M750.75,-288.75C750.75,-250.86 750.75,-144.06 750.75,-96.53"/>
<polygon fill="black" stroke="black" points="753.55,-96.58 750.75,-88.58 747.95,-96.58 753.55,-96.58"/>
</g>
<!-- Arity -->
<g id="node19" class="node">
<title>Arity</title>
<path fill="none" stroke="black" d="M730.15,-260C730.15,-260 695.35,-260 695.35,-260 690.55,-260 685.75,-255.2 685.75,-250.4 685.75,-250.4 685.75,-240.8 685.75,-240.8 685.75,-236 690.55,-231.2 695.35,-231.2 695.35,-231.2 730.15,-231.2 730.15,-231.2 734.95,-231.2 739.75,-236 739.75,-240.8 739.75,-240.8 739.75,-250.4 739.75,-250.4 739.75,-255.2 734.95,-260 730.15,-260"/>
<text xml:space="preserve" text-anchor="middle" x="712.75" y="-240.58" font-family="Helvetica,sans-Serif" font-size="12.00">Arity</text>
</g>
<!-- ExprConstructor&#45;&gt;Arity -->
<g id="edge27" class="edge">
<title>ExprConstructor&#45;&gt;Arity</title>
<path fill="none" stroke="black" d="M741.36,-288.61C737.12,-282.39 732.03,-274.91 727.31,-267.99"/>
<polygon fill="black" stroke="black" points="729.7,-266.52 722.89,-261.49 725.08,-269.67 729.7,-266.52"/>
</g>
<!-- ExprApplication&#45;&gt;Expr -->
<g id="edge28" class="edge">
<title>ExprApplication&#45;&gt;Expr</title>
<path fill="none" stroke="black" d="M985.52,-318.2C955.56,-327.85 915.43,-340.56 886.75,-349.46"/>
<polygon fill="black" stroke="black" points="886.13,-346.72 879.32,-351.76 887.79,-352.07 886.13,-346.72"/>
</g>
<!-- ExprLet&#45;&gt;Expr -->
<g id="edge29" class="edge">
<title>ExprLet&#45;&gt;Expr</title>
<path fill="none" stroke="black" d="M692.71,-315.09C695.25,-316.04 697.79,-316.97 700.25,-317.8 738.8,-330.88 783.78,-342.91 814.48,-350.78"/>
<polygon fill="black" stroke="black" points="813.62,-353.45 822.06,-352.71 815,-348.02 813.62,-353.45"/>
</g>
<!-- ExprLambda&#45;&gt;Expr -->
<g id="edge30" class="edge">
<title>ExprLambda&#45;&gt;Expr</title>
<path fill="none" stroke="black" d="M853.04,-318.03C853.34,-323.83 853.44,-330.74 853.34,-337.27"/>
<polygon fill="black" stroke="black" points="850.55,-336.81 853.1,-344.89 856.15,-336.99 850.55,-336.81"/>
</g>
<!-- ExprCase&#45;&gt;Expr -->
<g id="edge31" class="edge">
<title>ExprCase&#45;&gt;Expr</title>
<path fill="none" stroke="black" d="M916.24,-318.23C906.08,-325.21 893.24,-333.78 881.62,-341.35"/>
<polygon fill="black" stroke="black" points="880.28,-338.89 875.09,-345.58 883.32,-343.59 880.28,-338.89"/>
</g>
<!-- CaseAlternative -->
<g id="node20" class="node">
<title>CaseAlternative</title>
<path fill="none" stroke="black" d="M975.9,-260C975.9,-260 893.6,-260 893.6,-260 888.8,-260 884,-255.2 884,-250.4 884,-250.4 884,-240.8 884,-240.8 884,-236 888.8,-231.2 893.6,-231.2 893.6,-231.2 975.9,-231.2 975.9,-231.2 980.7,-231.2 985.5,-236 985.5,-240.8 985.5,-240.8 985.5,-250.4 985.5,-250.4 985.5,-255.2 980.7,-260 975.9,-260"/>
<text xml:space="preserve" text-anchor="middle" x="934.75" y="-240.58" font-family="Helvetica,sans-Serif" font-size="12.00">CaseAlternative</text>
</g>
<!-- ExprCase&#45;&gt;CaseAlternative -->
<g id="edge32" class="edge">
<title>ExprCase&#45;&gt;CaseAlternative</title>
<path fill="none" stroke="black" d="M934.75,-288.61C934.75,-282.8 934.75,-275.88 934.75,-269.35"/>
<polygon fill="black" stroke="black" points="937.55,-269.75 934.75,-261.75 931.95,-269.75 937.55,-269.75"/>
</g>
<!-- CaseAlternative&#45;&gt;Expr -->
<g id="edge33" class="edge">
<title>CaseAlternative&#45;&gt;Expr</title>
<path fill="none" stroke="black" d="M985.53,-253.3C1038.45,-262.35 1109.79,-281.69 1079.75,-317.8 1055.69,-346.73 945.55,-356.01 887.23,-358.91"/>
<polygon fill="black" stroke="black" points="887.37,-356.1 879.51,-359.27 887.63,-361.7 887.37,-356.1"/>
</g>
<!-- Pattern -->
<g id="node21" class="node">
<title>Pattern</title>
<path fill="none" stroke="black" d="M949.27,-202.2C949.27,-202.2 914.23,-202.2 914.23,-202.2 909.42,-202.2 904.62,-197.4 904.62,-192.6 904.62,-192.6 904.62,-183 904.62,-183 904.62,-178.2 909.42,-173.4 914.23,-173.4 914.23,-173.4 949.27,-173.4 949.27,-173.4 954.08,-173.4 958.88,-178.2 958.88,-183 958.88,-183 958.88,-192.6 958.88,-192.6 958.88,-197.4 954.08,-202.2 949.27,-202.2"/>
<text xml:space="preserve" text-anchor="middle" x="931.75" y="-182.78" font-family="Helvetica,sans-Serif" font-size="12.00">Pattern</text>
</g>
<!-- CaseAlternative&#45;&gt;Pattern -->
<g id="edge34" class="edge">
<title>CaseAlternative&#45;&gt;Pattern</title>
<path fill="none" stroke="black" d="M934.01,-230.81C933.7,-225 933.32,-218.08 932.97,-211.55"/>
<polygon fill="black" stroke="black" points="935.79,-211.78 932.56,-203.95 930.2,-212.08 935.79,-211.78"/>
</g>
<!-- PatternVar -->
<g id="node22" class="node">
<title>PatternVar</title>
<path fill="none" stroke="black" d="M721.9,-144.4C721.9,-144.4 669.6,-144.4 669.6,-144.4 664.8,-144.4 660,-139.6 660,-134.8 660,-134.8 660,-125.2 660,-125.2 660,-120.4 664.8,-115.6 669.6,-115.6 669.6,-115.6 721.9,-115.6 721.9,-115.6 726.7,-115.6 731.5,-120.4 731.5,-125.2 731.5,-125.2 731.5,-134.8 731.5,-134.8 731.5,-139.6 726.7,-144.4 721.9,-144.4"/>
<text xml:space="preserve" text-anchor="middle" x="695.75" y="-124.97" font-family="Helvetica,sans-Serif" font-size="12.00">PatternVar</text>
</g>
<!-- Pattern&#45;&gt;PatternVar -->
<g id="edge35" class="edge">
<title>Pattern&#45;&gt;PatternVar</title>
<path fill="none" stroke="black" d="M904.22,-180.29C864.12,-170.81 789.2,-153.1 740.95,-141.69"/>
<polygon fill="black" stroke="black" points="741.87,-139.03 733.44,-139.91 740.58,-144.48 741.87,-139.03"/>
</g>
<!-- PatternWildcard -->
<g id="node23" class="node">
<title>PatternWildcard</title>
<path fill="none" stroke="black" d="M856.9,-144.4C856.9,-144.4 774.6,-144.4 774.6,-144.4 769.8,-144.4 765,-139.6 765,-134.8 765,-134.8 765,-125.2 765,-125.2 765,-120.4 769.8,-115.6 774.6,-115.6 774.6,-115.6 856.9,-115.6 856.9,-115.6 861.7,-115.6 866.5,-120.4 866.5,-125.2 866.5,-125.2 866.5,-134.8 866.5,-134.8 866.5,-139.6 861.7,-144.4 856.9,-144.4"/>
<text xml:space="preserve" text-anchor="middle" x="815.75" y="-124.97" font-family="Helvetica,sans-Serif" font-size="12.00">PatternWildcard</text>
</g>
<!-- Pattern&#45;&gt;PatternWildcard -->
<g id="edge36" class="edge">
<title>Pattern&#45;&gt;PatternWildcard</title>
<path fill="none" stroke="black" d="M904.26,-173.58C888.86,-166.17 869.44,-156.83 852.72,-148.78"/>
<polygon fill="black" stroke="black" points="854.04,-146.31 845.62,-145.37 851.61,-151.36 854.04,-146.31"/>
</g>
<!-- PatternLiteral -->
<g id="node24" class="node">
<title>PatternLiteral</title>
<path fill="none" stroke="black" d="M1077.78,-144.4C1077.78,-144.4 1009.73,-144.4 1009.73,-144.4 1004.92,-144.4 1000.12,-139.6 1000.12,-134.8 1000.12,-134.8 1000.12,-125.2 1000.12,-125.2 1000.12,-120.4 1004.92,-115.6 1009.73,-115.6 1009.73,-115.6 1077.78,-115.6 1077.78,-115.6 1082.58,-115.6 1087.38,-120.4 1087.38,-125.2 1087.38,-125.2 1087.38,-134.8 1087.38,-134.8 1087.38,-139.6 1082.58,-144.4 1077.78,-144.4"/>
<text xml:space="preserve" text-anchor="middle" x="1043.75" y="-124.97" font-family="Helvetica,sans-Serif" font-size="12.00">PatternLiteral</text>
</g>
<!-- Pattern&#45;&gt;PatternLiteral -->
<g id="edge37" class="edge">
<title>Pattern&#45;&gt;PatternLiteral</title>
<path fill="none" stroke="black" d="M959.15,-173.15C973.68,-165.91 991.73,-156.92 1007.42,-149.1"/>
<polygon fill="black" stroke="black" points="1008.59,-151.65 1014.5,-145.57 1006.09,-146.63 1008.59,-151.65"/>
</g>
<!-- PatternConstructor -->
<g id="node25" class="node">
<title>PatternConstructor</title>
<path fill="none" stroke="black" d="M980.02,-144.4C980.02,-144.4 883.48,-144.4 883.48,-144.4 878.67,-144.4 873.88,-139.6 873.88,-134.8 873.88,-134.8 873.88,-125.2 873.88,-125.2 873.88,-120.4 878.67,-115.6 883.48,-115.6 883.48,-115.6 980.02,-115.6 980.02,-115.6 984.83,-115.6 989.62,-120.4 989.62,-125.2 989.62,-125.2 989.62,-134.8 989.62,-134.8 989.62,-139.6 984.83,-144.4 980.02,-144.4"/>
<text xml:space="preserve" text-anchor="middle" x="931.75" y="-124.97" font-family="Helvetica,sans-Serif" font-size="12.00">PatternConstructor</text>
</g>
<!-- Pattern&#45;&gt;PatternConstructor -->
<g id="edge38" class="edge">
<title>Pattern&#45;&gt;PatternConstructor</title>
<path fill="none" stroke="black" d="M929.45,-173.01C929.16,-167.2 929.06,-160.28 929.17,-153.75"/>
<polygon fill="black" stroke="black" points="931.95,-154.23 929.41,-146.15 926.35,-154.05 931.95,-154.23"/>
</g>
<!-- PatternVar&#45;&gt;Name -->
<g id="edge39" class="edge">
<title>PatternVar&#45;&gt;Name</title>
<path fill="none" stroke="black" d="M668.56,-115.21C654.28,-107.96 636.61,-99 621.26,-91.21"/>
<polygon fill="black" stroke="black" points="622.76,-88.83 614.36,-87.71 620.23,-93.83 622.76,-88.83"/>
</g>
<!-- PatternLiteral&#45;&gt;Literal -->
<g id="edge40" class="edge">
<title>PatternLiteral&#45;&gt;Literal</title>
<path fill="none" stroke="black" d="M1050.67,-115.21C1053.72,-109.13 1057.38,-101.83 1060.79,-95.04"/>
<polygon fill="black" stroke="black" points="1063.14,-96.59 1064.23,-88.19 1058.14,-94.08 1063.14,-96.59"/>
</g>
<!-- PatternConstructor&#45;&gt;Tag -->
<g id="edge41" class="edge">
<title>PatternConstructor&#45;&gt;Tag</title>
<path fill="none" stroke="black" d="M887.01,-115.21C856.21,-105.71 815.83,-93.26 787.03,-84.39"/>
<polygon fill="black" stroke="black" points="788.04,-81.76 779.57,-82.08 786.39,-87.12 788.04,-81.76"/>
</g>
<!-- PatternConstructor&#45;&gt;Pattern -->
<g id="edge42" class="edge">
<title>PatternConstructor&#45;&gt;Pattern</title>
<path fill="none" stroke="black" d="M934.04,-144.63C934.34,-150.43 934.44,-157.34 934.34,-163.87"/>
<polygon fill="black" stroke="black" points="931.55,-163.41 934.1,-171.49 937.15,-163.59 931.55,-163.41"/>
</g>
<!-- LiteralInt -->
<g id="node27" class="node">
<title>LiteralInt</title>
<path fill="none" stroke="black" d="M1015.02,-28.8C1015.02,-28.8 972.48,-28.8 972.48,-28.8 967.67,-28.8 962.88,-24 962.88,-19.2 962.88,-19.2 962.88,-9.6 962.88,-9.6 962.88,-4.8 967.67,0 972.48,0 972.48,0 1015.02,0 1015.02,0 1019.83,0 1024.62,-4.8 1024.62,-9.6 1024.62,-9.6 1024.62,-19.2 1024.62,-19.2 1024.62,-24 1019.83,-28.8 1015.02,-28.8"/>
<text xml:space="preserve" text-anchor="middle" x="993.75" y="-9.37" font-family="Helvetica,sans-Serif" font-size="12.00">LiteralInt</text>
</g>
<!-- Literal&#45;&gt;LiteralInt -->
<g id="edge44" class="edge">
<title>Literal&#45;&gt;LiteralInt</title>
<path fill="none" stroke="black" d="M1052.47,-57.41C1042.91,-50.57 1031.2,-42.19 1020.76,-34.72"/>
<polygon fill="black" stroke="black" points="1022.45,-32.49 1014.31,-30.11 1019.19,-37.04 1022.45,-32.49"/>
</g>
<!-- LiteralString -->
<g id="node28" class="node">
<title>LiteralString</title>
<path fill="none" stroke="black" d="M1102.4,-28.8C1102.4,-28.8 1041.1,-28.8 1041.1,-28.8 1036.3,-28.8 1031.5,-24 1031.5,-19.2 1031.5,-19.2 1031.5,-9.6 1031.5,-9.6 1031.5,-4.8 1036.3,0 1041.1,0 1041.1,0 1102.4,0 1102.4,0 1107.2,0 1112,-4.8 1112,-9.6 1112,-9.6 1112,-19.2 1112,-19.2 1112,-24 1107.2,-28.8 1102.4,-28.8"/>
<text xml:space="preserve" text-anchor="middle" x="1071.75" y="-9.37" font-family="Helvetica,sans-Serif" font-size="12.00">LiteralString</text>
</g>
<!-- Literal&#45;&gt;LiteralString -->
<g id="edge45" class="edge">
<title>Literal&#45;&gt;LiteralString</title>
<path fill="none" stroke="black" d="M1071.75,-57.41C1071.75,-51.6 1071.75,-44.68 1071.75,-38.15"/>
<polygon fill="black" stroke="black" points="1074.55,-38.55 1071.75,-30.55 1068.95,-38.55 1074.55,-38.55"/>
</g>
<!-- LiteralDouble -->
<g id="node29" class="node">
<title>LiteralDouble</title>
<path fill="none" stroke="black" d="M1197.15,-28.8C1197.15,-28.8 1128.35,-28.8 1128.35,-28.8 1123.55,-28.8 1118.75,-24 1118.75,-19.2 1118.75,-19.2 1118.75,-9.6 1118.75,-9.6 1118.75,-4.8 1123.55,0 1128.35,0 1128.35,0 1197.15,0 1197.15,0 1201.95,0 1206.75,-4.8 1206.75,-9.6 1206.75,-9.6 1206.75,-19.2 1206.75,-19.2 1206.75,-24 1201.95,-28.8 1197.15,-28.8"/>
<text xml:space="preserve" text-anchor="middle" x="1162.75" y="-9.37" font-family="Helvetica,sans-Serif" font-size="12.00">LiteralDouble</text>
</g>
<!-- Literal&#45;&gt;LiteralDouble -->
<g id="edge46" class="edge">
<title>Literal&#45;&gt;LiteralDouble</title>
<path fill="none" stroke="black" d="M1094.24,-57.41C1105.73,-50.36 1119.87,-41.7 1132.31,-34.06"/>
<polygon fill="black" stroke="black" points="1133.55,-36.59 1138.91,-30.02 1130.63,-31.81 1133.55,-36.59"/>
</g>
<!-- TypeHintVar&#45;&gt;Name -->
<g id="edge51" class="edge">
<title>TypeHintVar&#45;&gt;Name</title>
<path fill="none" stroke="black" d="M541.33,-115.21C548.34,-108.58 556.86,-100.52 564.56,-93.24"/>
<polygon fill="black" stroke="black" points="566.35,-95.41 570.23,-87.87 562.5,-91.34 566.35,-95.41"/>
</g>
<!-- TypeHintConstructor&#45;&gt;DataType -->
<g id="edge52" class="edge">
<title>TypeHintConstructor&#45;&gt;DataType</title>
<path fill="none" stroke="black" d="M77.83,-115.21C85.07,-108.58 93.88,-100.52 101.84,-93.24"/>
<polygon fill="black" stroke="black" points="103.72,-95.32 107.73,-87.86 99.94,-91.19 103.72,-95.32"/>
</g>
</g>
</svg>
