<?xml version="1.0" encoding="UTF-8" standalone="no"?>
<!DOCTYPE svg PUBLIC "-//W3C//DTD SVG 1.1//EN"
 "http://www.w3.org/Graphics/SVG/1.1/DTD/svg11.dtd">
<!-- Generated by graphviz version 15.0.0 (20260523.1842)
 -->
<!-- Title: G Pages: 1 -->
<svg width="1101pt" height="273pt"
 viewBox="0.00 0.00 1101.00 273.00" xmlns="http://www.w3.org/2000/svg" xmlns:xlink="http://www.w3.org/1999/xlink">
<g id="graph0" class="graph" transform="scale(1 1) rotate(0) translate(4 269)">
<title>G</title>
<polygon fill="white" stroke="none" points="-4,4 -4,-269 1097.38,-269 1097.38,4 -4,4"/>
<!-- Program -->
<g id="node1" class="node">
<title>Program</title>
<path fill="none" stroke="black" d="M450.08,-265C450.08,-265 407.42,-265 407.42,-265 404.58,-265 401.75,-262.17 401.75,-259.33 401.75,-259.33 401.75,-253.67 401.75,-253.67 401.75,-250.83 404.58,-248 407.42,-248 407.42,-248 450.08,-248 450.08,-248 452.92,-248 455.75,-250.83 455.75,-253.67 455.75,-253.67 455.75,-259.33 455.75,-259.33 455.75,-262.17 452.92,-265 450.08,-265"/>
<text xml:space="preserve" text-anchor="middle" x="428.75" y="-253.4" font-family="Helvetica,sans-Serif" font-size="8.00">Program</text>
</g>
<!-- Function -->
<g id="node2" class="node">
<title>Function</title>
<path fill="none" stroke="black" d="M599.08,-234C599.08,-234 556.42,-234 556.42,-234 553.58,-234 550.75,-231.17 550.75,-228.33 550.75,-228.33 550.75,-222.67 550.75,-222.67 550.75,-219.83 553.58,-217 556.42,-217 556.42,-217 599.08,-217 599.08,-217 601.92,-217 604.75,-219.83 604.75,-222.67 604.75,-222.67 604.75,-228.33 604.75,-228.33 604.75,-231.17 601.92,-234 599.08,-234"/>
<text xml:space="preserve" text-anchor="middle" x="577.75" y="-222.4" font-family="Helvetica,sans-Serif" font-size="8.00">Function</text>
</g>
<!-- Program&#45;&gt;Function -->
<g id="edge1" class="edge">
<title>Program&#45;&gt;Function</title>
<path fill="none" stroke="black" d="M456.22,-250.62C479.55,-246.42 513.9,-240.08 543.75,-234 543.88,-233.97 544.02,-233.95 544.15,-233.92"/>
<polygon fill="black" stroke="black" points="544.28,-235.68 548.82,-232.94 543.57,-232.25 544.28,-235.68"/>
</g>
<!-- DataDeclaration -->
<g id="node3" class="node">
<title>DataDeclaration</title>
<path fill="none" stroke="black" d="M171.96,-79C171.96,-79 109.54,-79 109.54,-79 106.71,-79 103.88,-76.17 103.88,-73.33 103.88,-73.33 103.88,-67.67 103.88,-67.67 103.88,-64.83 106.71,-62 109.54,-62 109.54,-62 171.96,-62 171.96,-62 174.79,-62 177.62,-64.83 177.62,-67.67 177.62,-67.67 177.62,-73.33 177.62,-73.33 177.62,-76.17 174.79,-79 171.96,-79"/>
<text xml:space="preserve" text-anchor="middle" x="140.75" y="-67.4" font-family="Helvetica,sans-Serif" font-size="8.00">DataDeclaration</text>
</g>
<!-- Program&#45;&gt;DataDeclaration -->
<g id="edge2" class="edge">
<title>Program&#45;&gt;DataDeclaration</title>
<path fill="none" stroke="black" d="M401.32,-255.24C332.09,-253.86 155.75,-245.42 155.75,-195.5 155.75,-195.5 155.75,-195.5 155.75,-131.5 155.75,-115.37 150.59,-97.52 146.32,-85.51"/>
<polygon fill="black" stroke="black" points="147.99,-84.99 144.61,-80.91 144.71,-86.21 147.99,-84.99"/>
</g>
<!-- TypeSignature -->
<g id="node4" class="node">
<title>TypeSignature</title>
<path fill="none" stroke="black" d="M469.96,-141C469.96,-141 413.54,-141 413.54,-141 410.71,-141 407.88,-138.17 407.88,-135.33 407.88,-135.33 407.88,-129.67 407.88,-129.67 407.88,-126.83 410.71,-124 413.54,-124 413.54,-124 469.96,-124 469.96,-124 472.79,-124 475.62,-126.83 475.62,-129.67 475.62,-129.67 475.62,-135.33 475.62,-135.33 475.62,-138.17 472.79,-141 469.96,-141"/>
<text xml:space="preserve" text-anchor="middle" x="441.75" y="-129.4" font-family="Helvetica,sans-Serif" font-size="8.00">TypeSignature</text>
</g>
<!-- Program&#45;&gt;TypeSignature -->
<g id="edge3" class="edge">
<title>Program&#45;&gt;TypeSignature</title>
<path fill="none" stroke="black" d="M429.56,-247.87C431.7,-227.85 437.48,-173.6 440.24,-147.67"/>
<polygon fill="black" stroke="black" points="441.95,-148.11 440.74,-142.95 438.47,-147.74 441.95,-148.11"/>
</g>
<!-- TypeclassDeclaration -->
<g id="node5" class="node">
<title>TypeclassDeclaration</title>
<path fill="none" stroke="black" d="M357.58,-141C357.58,-141 277.92,-141 277.92,-141 275.08,-141 272.25,-138.17 272.25,-135.33 272.25,-135.33 272.25,-129.67 272.25,-129.67 272.25,-126.83 275.08,-124 277.92,-124 277.92,-124 357.58,-124 357.58,-124 360.42,-124 363.25,-126.83 363.25,-129.67 363.25,-129.67 363.25,-135.33 363.25,-135.33 363.25,-138.17 360.42,-141 357.58,-141"/>
<text xml:space="preserve" text-anchor="middle" x="317.75" y="-129.4" font-family="Helvetica,sans-Serif" font-size="8.00">TypeclassDeclaration</text>
</g>
<!-- Program&#45;&gt;TypeclassDeclaration -->
<g id="edge4" class="edge">
<title>Program&#45;&gt;TypeclassDeclaration</title>
<path fill="none" stroke="black" d="M420.04,-247.6C409.11,-237.57 389.97,-219.56 374.75,-203 357.26,-183.97 338.54,-160.46 327.5,-146.25"/>
<polygon fill="black" stroke="black" points="329.17,-145.54 324.72,-142.65 326.4,-147.68 329.17,-145.54"/>
</g>
<!-- InstanceDeclaration -->
<g id="node6" class="node">
<title>InstanceDeclaration</title>
<path fill="none" stroke="black" d="M531.33,-234C531.33,-234 456.17,-234 456.17,-234 453.33,-234 450.5,-231.17 450.5,-228.33 450.5,-228.33 450.5,-222.67 450.5,-222.67 450.5,-219.83 453.33,-217 456.17,-217 456.17,-217 531.33,-217 531.33,-217 534.17,-217 537,-219.83 537,-222.67 537,-222.67 537,-228.33 537,-228.33 537,-231.17 534.17,-234 531.33,-234"/>
<text xml:space="preserve" text-anchor="middle" x="493.75" y="-222.4" font-family="Helvetica,sans-Serif" font-size="8.00">InstanceDeclaration</text>
</g>
<!-- Program&#45;&gt;InstanceDeclaration -->
<g id="edge5" class="edge">
<title>Program&#45;&gt;InstanceDeclaration</title>
<path fill="none" stroke="black" d="M446.51,-247.58C453.82,-244.31 462.39,-240.49 470.21,-237"/>
<polygon fill="black" stroke="black" points="470.77,-238.67 474.63,-235.03 469.35,-235.47 470.77,-238.67"/>
</g>
<!-- Name -->
<g id="node7" class="node">
<title>Name</title>
<path fill="none" stroke="black" d="M522.08,-48C522.08,-48 479.42,-48 479.42,-48 476.58,-48 473.75,-45.17 473.75,-42.33 473.75,-42.33 473.75,-36.67 473.75,-36.67 473.75,-33.83 476.58,-31 479.42,-31 479.42,-31 522.08,-31 522.08,-31 524.92,-31 527.75,-33.83 527.75,-36.67 527.75,-36.67 527.75,-42.33 527.75,-42.33 527.75,-45.17 524.92,-48 522.08,-48"/>
<text xml:space="preserve" text-anchor="middle" x="500.75" y="-36.4" font-family="Helvetica,sans-Serif" font-size="8.00">Name</text>
</g>
<!-- Function&#45;&gt;Name -->
<g id="edge6" class="edge">
<title>Function&#45;&gt;Name</title>
<path fill="none" stroke="black" d="M570.33,-216.67C560.88,-205.85 545.75,-185.28 545.75,-164.5 545.75,-164.5 545.75,-164.5 545.75,-100.5 545.75,-80.73 529.92,-63.3 517.04,-52.4"/>
<polygon fill="black" stroke="black" points="518.27,-51.14 513.28,-49.36 516.07,-53.86 518.27,-51.14"/>
</g>
<!-- AnnotatedExpr -->
<g id="node8" class="node">
<title>AnnotatedExpr</title>
<path fill="none" stroke="black" d="M813.71,-203C813.71,-203 755.79,-203 755.79,-203 752.96,-203 750.12,-200.17 750.12,-197.33 750.12,-197.33 750.12,-191.67 750.12,-191.67 750.12,-188.83 752.96,-186 755.79,-186 755.79,-186 813.71,-186 813.71,-186 816.54,-186 819.38,-188.83 819.38,-191.67 819.38,-191.67 819.38,-197.33 819.38,-197.33 819.38,-200.17 816.54,-203 813.71,-203"/>
<text xml:space="preserve" text-anchor="middle" x="784.75" y="-191.4" font-family="Helvetica,sans-Serif" font-size="8.00">AnnotatedExpr</text>
</g>
<!-- Function&#45;&gt;AnnotatedExpr -->
<g id="edge7" class="edge">
<title>Function&#45;&gt;AnnotatedExpr</title>
<path fill="none" stroke="black" d="M605.24,-220.65C640.63,-215.69 702.44,-207.03 743.48,-201.28"/>
<polygon fill="black" stroke="black" points="743.68,-203.02 748.39,-200.59 743.19,-199.56 743.68,-203.02"/>
</g>
<!-- DataDeclaration&#45;&gt;Name -->
<g id="edge8" class="edge">
<title>DataDeclaration&#45;&gt;Name</title>
<path fill="none" stroke="black" d="M177.92,-63.37C181.57,-62.86 185.23,-62.4 188.75,-62 289.8,-50.65 409.98,-44.4 467.22,-41.86"/>
<polygon fill="black" stroke="black" points="467.12,-43.62 472.04,-41.65 466.97,-40.12 467.12,-43.62"/>
</g>
<!-- DataType -->
<g id="node9" class="node">
<title>DataType</title>
<path fill="none" stroke="black" d="M114.08,-48C114.08,-48 71.42,-48 71.42,-48 68.58,-48 65.75,-45.17 65.75,-42.33 65.75,-42.33 65.75,-36.67 65.75,-36.67 65.75,-33.83 68.58,-31 71.42,-31 71.42,-31 114.08,-31 114.08,-31 116.92,-31 119.75,-33.83 119.75,-36.67 119.75,-36.67 119.75,-42.33 119.75,-42.33 119.75,-45.17 116.92,-48 114.08,-48"/>
<text xml:space="preserve" text-anchor="middle" x="92.75" y="-36.4" font-family="Helvetica,sans-Serif" font-size="8.00">DataType</text>
</g>
<!-- DataDeclaration&#45;&gt;DataType -->
<g id="edge9" class="edge">
<title>DataDeclaration&#45;&gt;DataType</title>
<path fill="none" stroke="black" d="M127.63,-61.58C122.55,-58.51 116.65,-54.94 111.16,-51.62"/>
<polygon fill="black" stroke="black" points="112.33,-50.29 107.15,-49.2 110.52,-53.28 112.33,-50.29"/>
</g>
<!-- Tag -->
<g id="node10" class="node">
<title>Tag</title>
<path fill="none" stroke="black" d="M725.08,-48C725.08,-48 682.42,-48 682.42,-48 679.58,-48 676.75,-45.17 676.75,-42.33 676.75,-42.33 676.75,-36.67 676.75,-36.67 676.75,-33.83 679.58,-31 682.42,-31 682.42,-31 725.08,-31 725.08,-31 727.92,-31 730.75,-33.83 730.75,-36.67 730.75,-36.67 730.75,-42.33 730.75,-42.33 730.75,-45.17 727.92,-48 725.08,-48"/>
<text xml:space="preserve" text-anchor="middle" x="703.75" y="-36.4" font-family="Helvetica,sans-Serif" font-size="8.00">Tag</text>
</g>
<!-- DataDeclaration&#45;&gt;Tag -->
<g id="edge10" class="edge">
<title>DataDeclaration&#45;&gt;Tag</title>
<path fill="none" stroke="black" d="M177.98,-65.31C189.73,-64.1 202.77,-62.87 214.75,-62 356.74,-51.71 392.53,-54.27 534.75,-48 581.84,-45.92 636.32,-43.5 670.41,-41.99"/>
<polygon fill="black" stroke="black" points="670.1,-43.75 675.02,-41.78 669.94,-40.25 670.1,-43.75"/>
</g>
<!-- TypeSignature&#45;&gt;Name -->
<g id="edge11" class="edge">
<title>TypeSignature&#45;&gt;Name</title>
<path fill="none" stroke="black" d="M446.78,-123.74C456.83,-108.24 479.51,-73.27 492.03,-53.95"/>
<polygon fill="black" stroke="black" points="493.49,-54.92 494.74,-49.77 490.55,-53.01 493.49,-54.92"/>
</g>
<!-- TypeHint -->
<g id="node11" class="node">
<title>TypeHint</title>
<path fill="none" stroke="black" d="M369.08,-110C369.08,-110 326.42,-110 326.42,-110 323.58,-110 320.75,-107.17 320.75,-104.33 320.75,-104.33 320.75,-98.67 320.75,-98.67 320.75,-95.83 323.58,-93 326.42,-93 326.42,-93 369.08,-93 369.08,-93 371.92,-93 374.75,-95.83 374.75,-98.67 374.75,-98.67 374.75,-104.33 374.75,-104.33 374.75,-107.17 371.92,-110 369.08,-110"/>
<text xml:space="preserve" text-anchor="middle" x="347.75" y="-98.4" font-family="Helvetica,sans-Serif" font-size="8.00">TypeHint</text>
</g>
<!-- TypeSignature&#45;&gt;TypeHint -->
<g id="edge12" class="edge">
<title>TypeSignature&#45;&gt;TypeHint</title>
<path fill="none" stroke="black" d="M416.06,-123.58C404.77,-120.09 391.39,-115.96 379.48,-112.29"/>
<polygon fill="black" stroke="black" points="380.14,-110.66 374.85,-110.86 379.11,-114.01 380.14,-110.66"/>
</g>
<!-- TypeclassDeclaration&#45;&gt;Name -->
<g id="edge13" class="edge">
<title>TypeclassDeclaration&#45;&gt;Name</title>
<path fill="none" stroke="black" d="M286.3,-123.54C247.3,-112.25 188.93,-89.83 214.75,-62 231.6,-43.84 395.06,-40.92 467.03,-40.52"/>
<polygon fill="black" stroke="black" points="466.78,-42.27 471.77,-40.5 466.76,-38.77 466.78,-42.27"/>
</g>
<!-- TypeclassDeclaration&#45;&gt;TypeHint -->
<g id="edge14" class="edge">
<title>TypeclassDeclaration&#45;&gt;TypeHint</title>
<path fill="none" stroke="black" d="M325.95,-123.58C328.77,-120.85 332,-117.72 335.1,-114.73"/>
<polygon fill="black" stroke="black" points="336.3,-116 338.68,-111.27 333.87,-113.48 336.3,-116"/>
</g>
<!-- InstanceDeclaration&#45;&gt;Name -->
<g id="edge15" class="edge">
<title>InstanceDeclaration&#45;&gt;Name</title>
<path fill="none" stroke="black" d="M498.63,-216.68C505.11,-205.54 515.75,-184.25 515.75,-164.5 515.75,-164.5 515.75,-164.5 515.75,-100.5 515.75,-84.37 510.59,-66.52 506.32,-54.51"/>
<polygon fill="black" stroke="black" points="507.99,-53.99 504.61,-49.91 504.71,-55.21 507.99,-53.99"/>
</g>
<!-- InstanceDeclaration&#45;&gt;AnnotatedExpr -->
<g id="edge16" class="edge">
<title>InstanceDeclaration&#45;&gt;AnnotatedExpr</title>
<path fill="none" stroke="black" d="M537.36,-217.8C539.52,-217.52 541.66,-217.25 543.75,-217 613.81,-208.63 695.67,-201.99 743.7,-198.41"/>
<polygon fill="black" stroke="black" points="743.59,-200.17 748.45,-198.06 743.34,-196.68 743.59,-200.17"/>
</g>
<!-- InstanceDeclaration&#45;&gt;TypeHint -->
<g id="edge17" class="edge">
<title>InstanceDeclaration&#45;&gt;TypeHint</title>
<path fill="none" stroke="black" d="M484.62,-216.87C459.95,-196.26 391.84,-139.34 362.03,-114.43"/>
<polygon fill="black" stroke="black" points="363.38,-113.28 358.42,-111.41 361.13,-115.96 363.38,-113.28"/>
</g>
<!-- ExprVariable -->
<g id="node12" class="node">
<title>ExprVariable</title>
<path fill="none" stroke="black" d="M623.96,-110C623.96,-110 573.54,-110 573.54,-110 570.71,-110 567.88,-107.17 567.88,-104.33 567.88,-104.33 567.88,-98.67 567.88,-98.67 567.88,-95.83 570.71,-93 573.54,-93 573.54,-93 623.96,-93 623.96,-93 626.79,-93 629.62,-95.83 629.62,-98.67 629.62,-98.67 629.62,-104.33 629.62,-104.33 629.62,-107.17 626.79,-110 623.96,-110"/>
<text xml:space="preserve" text-anchor="middle" x="598.75" y="-98.4" font-family="Helvetica,sans-Serif" font-size="8.00">ExprVariable</text>
</g>
<!-- AnnotatedExpr&#45;&gt;ExprVariable -->
<g id="edge18" class="edge">
<title>AnnotatedExpr&#45;&gt;ExprVariable</title>
<path fill="none" stroke="black" d="M749.81,-192.11C696.82,-189.64 601.15,-183.61 590.75,-172 577.02,-156.66 584.98,-131.17 591.92,-115.69"/>
<polygon fill="black" stroke="black" points="593.36,-116.74 593.93,-111.47 590.2,-115.23 593.36,-116.74"/>
</g>
<!-- ExprLiteral -->
<g id="node13" class="node">
<title>ExprLiteral</title>
<path fill="none" stroke="black" d="M1038.21,-110C1038.21,-110 995.29,-110 995.29,-110 992.46,-110 989.62,-107.17 989.62,-104.33 989.62,-104.33 989.62,-98.67 989.62,-98.67 989.62,-95.83 992.46,-93 995.29,-93 995.29,-93 1038.21,-93 1038.21,-93 1041.04,-93 1043.88,-95.83 1043.88,-98.67 1043.88,-98.67 1043.88,-104.33 1043.88,-104.33 1043.88,-107.17 1041.04,-110 1038.21,-110"/>
<text xml:space="preserve" text-anchor="middle" x="1016.75" y="-98.4" font-family="Helvetica,sans-Serif" font-size="8.00">ExprLiteral</text>
</g>
<!-- AnnotatedExpr&#45;&gt;ExprLiteral -->
<g id="edge19" class="edge">
<title>AnnotatedExpr&#45;&gt;ExprLiteral</title>
<path fill="none" stroke="black" d="M819.55,-194.04C870.69,-194.15 962.88,-191.52 988.75,-172 1006.38,-158.7 1012.94,-132.48 1015.36,-116.32"/>
<polygon fill="black" stroke="black" points="1017.07,-116.76 1015.97,-111.58 1013.6,-116.32 1017.07,-116.76"/>
</g>
<!-- ExprConstructor -->
<g id="node14" class="node">
<title>ExprConstructor</title>
<path fill="none" stroke="black" d="M734.33,-172C734.33,-172 671.17,-172 671.17,-172 668.33,-172 665.5,-169.17 665.5,-166.33 665.5,-166.33 665.5,-160.67 665.5,-160.67 665.5,-157.83 668.33,-155 671.17,-155 671.17,-155 734.33,-155 734.33,-155 737.17,-155 740,-157.83 740,-160.67 740,-160.67 740,-166.33 740,-166.33 740,-169.17 737.17,-172 734.33,-172"/>
<text xml:space="preserve" text-anchor="middle" x="702.75" y="-160.4" font-family="Helvetica,sans-Serif" font-size="8.00">ExprConstructor</text>
</g>
<!-- AnnotatedExpr&#45;&gt;ExprConstructor -->
<g id="edge20" class="edge">
<title>AnnotatedExpr&#45;&gt;ExprConstructor</title>
<path fill="none" stroke="black" d="M762.34,-185.58C752.67,-182.16 741.25,-178.12 731,-174.49"/>
<polygon fill="black" stroke="black" points="731.85,-172.94 726.56,-172.92 730.69,-176.24 731.85,-172.94"/>
</g>
<!-- ExprApplication -->
<g id="node15" class="node">
<title>ExprApplication</title>
<path fill="none" stroke="black" d="M962.46,-172C962.46,-172 903.04,-172 903.04,-172 900.21,-172 897.38,-169.17 897.38,-166.33 897.38,-166.33 897.38,-160.67 897.38,-160.67 897.38,-157.83 900.21,-155 903.04,-155 903.04,-155 962.46,-155 962.46,-155 965.29,-155 968.12,-157.83 968.12,-160.67 968.12,-160.67 968.12,-166.33 968.12,-166.33 968.12,-169.17 965.29,-172 962.46,-172"/>
<text xml:space="preserve" text-anchor="middle" x="932.75" y="-160.4" font-family="Helvetica,sans-Serif" font-size="8.00">ExprApplication</text>
</g>
<!-- AnnotatedExpr&#45;&gt;ExprApplication -->
<g id="edge21" class="edge">
<title>AnnotatedExpr&#45;&gt;ExprApplication</title>
<path fill="none" stroke="black" d="M819.7,-185.73C841.03,-181.4 868.36,-176.05 890.84,-171.81"/>
<polygon fill="black" stroke="black" points="890.96,-173.56 895.55,-170.92 890.32,-170.12 890.96,-173.56"/>
</g>
<!-- ExprLet -->
<g id="node16" class="node">
<title>ExprLet</title>
<path fill="none" stroke="black" d="M646.08,-172C646.08,-172 603.42,-172 603.42,-172 600.58,-172 597.75,-169.17 597.75,-166.33 597.75,-166.33 597.75,-160.67 597.75,-160.67 597.75,-157.83 600.58,-155 603.42,-155 603.42,-155 646.08,-155 646.08,-155 648.92,-155 651.75,-157.83 651.75,-160.67 651.75,-160.67 651.75,-166.33 651.75,-166.33 651.75,-169.17 648.92,-172 646.08,-172"/>
<text xml:space="preserve" text-anchor="middle" x="624.75" y="-160.4" font-family="Helvetica,sans-Serif" font-size="8.00">ExprLet</text>
</g>
<!-- AnnotatedExpr&#45;&gt;ExprLet -->
<g id="edge22" class="edge">
<title>AnnotatedExpr&#45;&gt;ExprLet</title>
<path fill="none" stroke="black" d="M749.85,-188.9C724.6,-185.07 689.73,-179.28 658.36,-173.28"/>
<polygon fill="black" stroke="black" points="658.86,-171.59 653.62,-172.36 658.2,-175.03 658.86,-171.59"/>
</g>
<!-- ExprLambda -->
<g id="node17" class="node">
<title>ExprLambda</title>
<path fill="none" stroke="black" d="M809.96,-172C809.96,-172 759.54,-172 759.54,-172 756.71,-172 753.88,-169.17 753.88,-166.33 753.88,-166.33 753.88,-160.67 753.88,-160.67 753.88,-157.83 756.71,-155 759.54,-155 759.54,-155 809.96,-155 809.96,-155 812.79,-155 815.62,-157.83 815.62,-160.67 815.62,-160.67 815.62,-166.33 815.62,-166.33 815.62,-169.17 812.79,-172 809.96,-172"/>
<text xml:space="preserve" text-anchor="middle" x="784.75" y="-160.4" font-family="Helvetica,sans-Serif" font-size="8.00">ExprLambda</text>
</g>
<!-- AnnotatedExpr&#45;&gt;ExprLambda -->
<g id="edge23" class="edge">
<title>AnnotatedExpr&#45;&gt;ExprLambda</title>
<path fill="none" stroke="black" d="M780.01,-185.58C779.64,-183.37 779.47,-180.9 779.5,-178.45"/>
<polygon fill="black" stroke="black" points="781.22,-178.86 779.92,-173.72 777.74,-178.55 781.22,-178.86"/>
</g>
<!-- ExprCase -->
<g id="node18" class="node">
<title>ExprCase</title>
<path fill="none" stroke="black" d="M878.08,-172C878.08,-172 835.42,-172 835.42,-172 832.58,-172 829.75,-169.17 829.75,-166.33 829.75,-166.33 829.75,-160.67 829.75,-160.67 829.75,-157.83 832.58,-155 835.42,-155 835.42,-155 878.08,-155 878.08,-155 880.92,-155 883.75,-157.83 883.75,-160.67 883.75,-160.67 883.75,-166.33 883.75,-166.33 883.75,-169.17 880.92,-172 878.08,-172"/>
<text xml:space="preserve" text-anchor="middle" x="856.75" y="-160.4" font-family="Helvetica,sans-Serif" font-size="8.00">ExprCase</text>
</g>
<!-- AnnotatedExpr&#45;&gt;ExprCase -->
<g id="edge24" class="edge">
<title>AnnotatedExpr&#45;&gt;ExprCase</title>
<path fill="none" stroke="black" d="M799.69,-185.58C807.46,-182.22 817.17,-178.27 826.4,-174.7"/>
<polygon fill="black" stroke="black" points="826.9,-176.38 830.95,-172.96 825.65,-173.11 826.9,-176.38"/>
</g>
<!-- TypeHintVar -->
<g id="node30" class="node">
<title>TypeHintVar</title>
<path fill="none" stroke="black" d="M458.21,-79C458.21,-79 409.29,-79 409.29,-79 406.46,-79 403.62,-76.17 403.62,-73.33 403.62,-73.33 403.62,-67.67 403.62,-67.67 403.62,-64.83 406.46,-62 409.29,-62 409.29,-62 458.21,-62 458.21,-62 461.04,-62 463.88,-64.83 463.88,-67.67 463.88,-67.67 463.88,-73.33 463.88,-73.33 463.88,-76.17 461.04,-79 458.21,-79"/>
<text xml:space="preserve" text-anchor="middle" x="433.75" y="-67.4" font-family="Helvetica,sans-Serif" font-size="8.00">TypeHintVar</text>
</g>
<!-- TypeHint&#45;&gt;TypeHintVar -->
<g id="edge47" class="edge">
<title>TypeHint&#45;&gt;TypeHintVar</title>
<path fill="none" stroke="black" d="M371.25,-92.58C381.39,-89.16 393.37,-85.12 404.12,-81.49"/>
<polygon fill="black" stroke="black" points="404.67,-83.15 408.84,-79.9 403.55,-79.84 404.67,-83.15"/>
</g>
<!-- TypeHintConstructor -->
<g id="node31" class="node">
<title>TypeHintConstructor</title>
<path fill="none" stroke="black" d="M83.83,-79C83.83,-79 5.67,-79 5.67,-79 2.83,-79 0,-76.17 0,-73.33 0,-73.33 0,-67.67 0,-67.67 0,-64.83 2.83,-62 5.67,-62 5.67,-62 83.83,-62 83.83,-62 86.67,-62 89.5,-64.83 89.5,-67.67 89.5,-67.67 89.5,-73.33 89.5,-73.33 89.5,-76.17 86.67,-79 83.83,-79"/>
<text xml:space="preserve" text-anchor="middle" x="44.75" y="-67.4" font-family="Helvetica,sans-Serif" font-size="8.00">TypeHintConstructor</text>
</g>
<!-- TypeHint&#45;&gt;TypeHintConstructor -->
<g id="edge48" class="edge">
<title>TypeHint&#45;&gt;TypeHintConstructor</title>
<path fill="none" stroke="black" d="M320.58,-98.69C274.48,-95.5 178,-88.33 96.75,-79 96.47,-78.97 96.18,-78.93 95.9,-78.9"/>
<polygon fill="black" stroke="black" points="96.5,-77.21 91.33,-78.35 96.08,-80.69 96.5,-77.21"/>
</g>
<!-- TypeHintArrow -->
<g id="node32" class="node">
<title>TypeHintArrow</title>
<path fill="none" stroke="black" d="M285.71,-79C285.71,-79 227.79,-79 227.79,-79 224.96,-79 222.12,-76.17 222.12,-73.33 222.12,-73.33 222.12,-67.67 222.12,-67.67 222.12,-64.83 224.96,-62 227.79,-62 227.79,-62 285.71,-62 285.71,-62 288.54,-62 291.38,-64.83 291.38,-67.67 291.38,-67.67 291.38,-73.33 291.38,-73.33 291.38,-76.17 288.54,-79 285.71,-79"/>
<text xml:space="preserve" text-anchor="middle" x="256.75" y="-67.4" font-family="Helvetica,sans-Serif" font-size="8.00">TypeHintArrow</text>
</g>
<!-- TypeHint&#45;&gt;TypeHintArrow -->
<g id="edge49" class="edge">
<title>TypeHint&#45;&gt;TypeHintArrow</title>
<path fill="none" stroke="black" d="M322.88,-92.58C312.05,-89.12 299.24,-85.04 287.79,-81.39"/>
<polygon fill="black" stroke="black" points="288.32,-79.73 283.03,-79.87 287.26,-83.06 288.32,-79.73"/>
</g>
<!-- TypeHintConstraint -->
<g id="node33" class="node">
<title>TypeHintConstraint</title>
<path fill="none" stroke="black" d="M384.21,-79C384.21,-79 311.29,-79 311.29,-79 308.46,-79 305.62,-76.17 305.62,-73.33 305.62,-73.33 305.62,-67.67 305.62,-67.67 305.62,-64.83 308.46,-62 311.29,-62 311.29,-62 384.21,-62 384.21,-62 387.04,-62 389.88,-64.83 389.88,-67.67 389.88,-67.67 389.88,-73.33 389.88,-73.33 389.88,-76.17 387.04,-79 384.21,-79"/>
<text xml:space="preserve" text-anchor="middle" x="347.75" y="-67.4" font-family="Helvetica,sans-Serif" font-size="8.00">TypeHintConstraint</text>
</g>
<!-- TypeHint&#45;&gt;TypeHintConstraint -->
<g id="edge50" class="edge">
<title>TypeHint&#45;&gt;TypeHintConstraint</title>
<path fill="none" stroke="black" d="M347.75,-92.58C347.75,-90.37 347.75,-87.9 347.75,-85.45"/>
<polygon fill="black" stroke="black" points="349.5,-85.73 347.75,-80.73 346,-85.73 349.5,-85.73"/>
</g>
<!-- ExprVariable&#45;&gt;Name -->
<g id="edge25" class="edge">
<title>ExprVariable&#45;&gt;Name</title>
<path fill="none" stroke="black" d="M592,-92.77C584.23,-84.26 570.71,-70.64 556.75,-62 549.55,-57.54 541.28,-53.75 533.34,-50.65"/>
<polygon fill="black" stroke="black" points="534.07,-49.05 528.78,-48.94 532.85,-52.33 534.07,-49.05"/>
</g>
<!-- Literal -->
<g id="node26" class="node">
<title>Literal</title>
<path fill="none" stroke="black" d="M1008.08,-48C1008.08,-48 965.42,-48 965.42,-48 962.58,-48 959.75,-45.17 959.75,-42.33 959.75,-42.33 959.75,-36.67 959.75,-36.67 959.75,-33.83 962.58,-31 965.42,-31 965.42,-31 1008.08,-31 1008.08,-31 1010.92,-31 1013.75,-33.83 1013.75,-36.67 1013.75,-36.67 1013.75,-42.33 1013.75,-42.33 1013.75,-45.17 1010.92,-48 1008.08,-48"/>
<text xml:space="preserve" text-anchor="middle" x="986.75" y="-36.4" font-family="Helvetica,sans-Serif" font-size="8.00">Literal</text>
</g>
<!-- ExprLiteral&#45;&gt;Literal -->
<g id="edge43" class="edge">
<title>ExprLiteral&#45;&gt;Literal</title>
<path fill="none" stroke="black" d="M1012.83,-92.66C1007.9,-82.81 999.38,-65.77 993.43,-53.85"/>
<polygon fill="black" stroke="black" points="995.06,-53.2 991.25,-49.51 991.93,-54.76 995.06,-53.2"/>
</g>
<!-- ExprConstructor&#45;&gt;Tag -->
<g id="edge26" class="edge">
<title>ExprConstructor&#45;&gt;Tag</title>
<path fill="none" stroke="black" d="M702.81,-154.87C702.98,-134.85 703.42,-80.6 703.63,-54.67"/>
<polygon fill="black" stroke="black" points="705.38,-54.97 703.67,-49.96 701.88,-54.94 705.38,-54.97"/>
</g>
<!-- Arity -->
<g id="node19" class="node">
<title>Arity</title>
<path fill="none" stroke="black" d="M676.08,-141C676.08,-141 633.42,-141 633.42,-141 630.58,-141 627.75,-138.17 627.75,-135.33 627.75,-135.33 627.75,-129.67 627.75,-129.67 627.75,-126.83 630.58,-124 633.42,-124 633.42,-124 676.08,-124 676.08,-124 678.92,-124 681.75,-126.83 681.75,-129.67 681.75,-129.67 681.75,-135.33 681.75,-135.33 681.75,-138.17 678.92,-141 676.08,-141"/>
<text xml:space="preserve" text-anchor="middle" x="654.75" y="-129.4" font-family="Helvetica,sans-Serif" font-size="8.00">Arity</text>
</g>
<!-- ExprConstructor&#45;&gt;Arity -->
<g id="edge27" class="edge">
<title>ExprConstructor&#45;&gt;Arity</title>
<path fill="none" stroke="black" d="M689.63,-154.58C684.55,-151.51 678.65,-147.94 673.16,-144.62"/>
<polygon fill="black" stroke="black" points="674.33,-143.29 669.15,-142.2 672.52,-146.28 674.33,-143.29"/>
</g>
<!-- ExprApplication&#45;&gt;AnnotatedExpr -->
<g id="edge28" class="edge">
<title>ExprApplication&#45;&gt;AnnotatedExpr</title>
<path fill="none" stroke="black" d="M897.03,-172.43C875.58,-176.77 848.27,-182.11 825.93,-186.33"/>
<polygon fill="black" stroke="black" points="825.84,-184.57 821.25,-187.21 826.49,-188.01 825.84,-184.57"/>
</g>
<!-- ExprLet&#45;&gt;AnnotatedExpr -->
<g id="edge29" class="edge">
<title>ExprLet&#45;&gt;AnnotatedExpr</title>
<path fill="none" stroke="black" d="M652.04,-169.18C656.67,-170.15 661.36,-171.14 665.75,-172 691.63,-177.06 720.63,-182.05 743.58,-185.95"/>
<polygon fill="black" stroke="black" points="743.17,-187.66 748.39,-186.77 743.76,-184.21 743.17,-187.66"/>
</g>
<!-- ExprLambda&#45;&gt;AnnotatedExpr -->
<g id="edge30" class="edge">
<title>ExprLambda&#45;&gt;AnnotatedExpr</title>
<path fill="none" stroke="black" d="M789.45,-172.21C789.83,-174.41 790.02,-176.87 790,-179.32"/>
<polygon fill="black" stroke="black" points="788.27,-178.94 789.61,-184.07 791.76,-179.23 788.27,-178.94"/>
</g>
<!-- ExprCase&#45;&gt;AnnotatedExpr -->
<g id="edge31" class="edge">
<title>ExprCase&#45;&gt;AnnotatedExpr</title>
<path fill="none" stroke="black" d="M841.84,-172.41C834.07,-175.77 824.35,-179.72 815.13,-183.29"/>
<polygon fill="black" stroke="black" points="814.62,-181.61 810.58,-185.04 815.87,-184.88 814.62,-181.61"/>
</g>
<!-- CaseAlternative -->
<g id="node20" class="node">
<title>CaseAlternative</title>
<path fill="none" stroke="black" d="M887.21,-141C887.21,-141 826.29,-141 826.29,-141 823.46,-141 820.62,-138.17 820.62,-135.33 820.62,-135.33 820.62,-129.67 820.62,-129.67 820.62,-126.83 823.46,-124 826.29,-124 826.29,-124 887.21,-124 887.21,-124 890.04,-124 892.88,-126.83 892.88,-129.67 892.88,-129.67 892.88,-135.33 892.88,-135.33 892.88,-138.17 890.04,-141 887.21,-141"/>
<text xml:space="preserve" text-anchor="middle" x="856.75" y="-129.4" font-family="Helvetica,sans-Serif" font-size="8.00">CaseAlternative</text>
</g>
<!-- ExprCase&#45;&gt;CaseAlternative -->
<g id="edge32" class="edge">
<title>ExprCase&#45;&gt;CaseAlternative</title>
<path fill="none" stroke="black" d="M856.75,-154.58C856.75,-152.37 856.75,-149.9 856.75,-147.45"/>
<polygon fill="black" stroke="black" points="858.5,-147.73 856.75,-142.73 855,-147.73 858.5,-147.73"/>
</g>
<!-- CaseAlternative&#45;&gt;AnnotatedExpr -->
<g id="edge33" class="edge">
<title>CaseAlternative&#45;&gt;AnnotatedExpr</title>
<path fill="none" stroke="black" d="M893,-134.21C936.24,-136.3 999.73,-144.04 974.75,-172 965.03,-182.88 879.01,-188.96 826.1,-191.7"/>
<polygon fill="black" stroke="black" points="826.24,-189.94 821.33,-191.94 826.41,-193.43 826.24,-189.94"/>
</g>
<!-- Pattern -->
<g id="node21" class="node">
<title>Pattern</title>
<path fill="none" stroke="black" d="M877.08,-110C877.08,-110 834.42,-110 834.42,-110 831.58,-110 828.75,-107.17 828.75,-104.33 828.75,-104.33 828.75,-98.67 828.75,-98.67 828.75,-95.83 831.58,-93 834.42,-93 834.42,-93 877.08,-93 877.08,-93 879.92,-93 882.75,-95.83 882.75,-98.67 882.75,-98.67 882.75,-104.33 882.75,-104.33 882.75,-107.17 879.92,-110 877.08,-110"/>
<text xml:space="preserve" text-anchor="middle" x="855.75" y="-98.4" font-family="Helvetica,sans-Serif" font-size="8.00">Pattern</text>
</g>
<!-- CaseAlternative&#45;&gt;Pattern -->
<g id="edge34" class="edge">
<title>CaseAlternative&#45;&gt;Pattern</title>
<path fill="none" stroke="black" d="M856.48,-123.58C856.4,-121.37 856.32,-118.9 856.23,-116.45"/>
<polygon fill="black" stroke="black" points="857.99,-116.66 856.07,-111.73 854.49,-116.78 857.99,-116.66"/>
</g>
<!-- PatternVar -->
<g id="node22" class="node">
<title>PatternVar</title>
<path fill="none" stroke="black" d="M667.58,-79C667.58,-79 623.92,-79 623.92,-79 621.08,-79 618.25,-76.17 618.25,-73.33 618.25,-73.33 618.25,-67.67 618.25,-67.67 618.25,-64.83 621.08,-62 623.92,-62 623.92,-62 667.58,-62 667.58,-62 670.42,-62 673.25,-64.83 673.25,-67.67 673.25,-67.67 673.25,-73.33 673.25,-73.33 673.25,-76.17 670.42,-79 667.58,-79"/>
<text xml:space="preserve" text-anchor="middle" x="645.75" y="-67.4" font-family="Helvetica,sans-Serif" font-size="8.00">PatternVar</text>
</g>
<!-- Pattern&#45;&gt;PatternVar -->
<g id="edge35" class="edge">
<title>Pattern&#45;&gt;PatternVar</title>
<path fill="none" stroke="black" d="M828.3,-96.71C790.2,-91.45 721.33,-81.94 679.94,-76.22"/>
<polygon fill="black" stroke="black" points="680.24,-74.5 675.04,-75.55 679.76,-77.96 680.24,-74.5"/>
</g>
<!-- PatternWildcard -->
<g id="node23" class="node">
<title>PatternWildcard</title>
<path fill="none" stroke="black" d="M793.58,-79C793.58,-79 731.92,-79 731.92,-79 729.08,-79 726.25,-76.17 726.25,-73.33 726.25,-73.33 726.25,-67.67 726.25,-67.67 726.25,-64.83 729.08,-62 731.92,-62 731.92,-62 793.58,-62 793.58,-62 796.42,-62 799.25,-64.83 799.25,-67.67 799.25,-67.67 799.25,-73.33 799.25,-73.33 799.25,-76.17 796.42,-79 793.58,-79"/>
<text xml:space="preserve" text-anchor="middle" x="762.75" y="-67.4" font-family="Helvetica,sans-Serif" font-size="8.00">PatternWildcard</text>
</g>
<!-- Pattern&#45;&gt;PatternWildcard -->
<g id="edge36" class="edge">
<title>Pattern&#45;&gt;PatternWildcard</title>
<path fill="none" stroke="black" d="M830.34,-92.58C819.16,-89.09 805.93,-84.96 794.14,-81.29"/>
<polygon fill="black" stroke="black" points="794.87,-79.68 789.58,-79.87 793.83,-83.02 794.87,-79.68"/>
</g>
<!-- PatternLiteral -->
<g id="node24" class="node">
<title>PatternLiteral</title>
<path fill="none" stroke="black" d="M981.08,-79C981.08,-79 928.42,-79 928.42,-79 925.58,-79 922.75,-76.17 922.75,-73.33 922.75,-73.33 922.75,-67.67 922.75,-67.67 922.75,-64.83 925.58,-62 928.42,-62 928.42,-62 981.08,-62 981.08,-62 983.92,-62 986.75,-64.83 986.75,-67.67 986.75,-67.67 986.75,-73.33 986.75,-73.33 986.75,-76.17 983.92,-79 981.08,-79"/>
<text xml:space="preserve" text-anchor="middle" x="954.75" y="-67.4" font-family="Helvetica,sans-Serif" font-size="8.00">PatternLiteral</text>
</g>
<!-- Pattern&#45;&gt;PatternLiteral -->
<g id="edge37" class="edge">
<title>Pattern&#45;&gt;PatternLiteral</title>
<path fill="none" stroke="black" d="M882.8,-92.58C894.81,-89.06 909.05,-84.89 921.68,-81.19"/>
<polygon fill="black" stroke="black" points="921.97,-82.93 926.28,-79.84 920.99,-79.57 921.97,-82.93"/>
</g>
<!-- PatternConstructor -->
<g id="node25" class="node">
<title>PatternConstructor</title>
<path fill="none" stroke="black" d="M892.21,-79C892.21,-79 819.29,-79 819.29,-79 816.46,-79 813.62,-76.17 813.62,-73.33 813.62,-73.33 813.62,-67.67 813.62,-67.67 813.62,-64.83 816.46,-62 819.29,-62 819.29,-62 892.21,-62 892.21,-62 895.04,-62 897.88,-64.83 897.88,-67.67 897.88,-67.67 897.88,-73.33 897.88,-73.33 897.88,-76.17 895.04,-79 892.21,-79"/>
<text xml:space="preserve" text-anchor="middle" x="855.75" y="-67.4" font-family="Helvetica,sans-Serif" font-size="8.00">PatternConstructor</text>
</g>
<!-- Pattern&#45;&gt;PatternConstructor -->
<g id="edge38" class="edge">
<title>Pattern&#45;&gt;PatternConstructor</title>
<path fill="none" stroke="black" d="M851.01,-92.58C850.64,-90.37 850.47,-87.9 850.5,-85.45"/>
<polygon fill="black" stroke="black" points="852.22,-85.86 850.92,-80.72 848.74,-85.55 852.22,-85.86"/>
</g>
<!-- PatternVar&#45;&gt;Name -->
<g id="edge39" class="edge">
<title>PatternVar&#45;&gt;Name</title>
<path fill="none" stroke="black" d="M617.79,-63.91C593.97,-59.14 559.67,-52.28 534.36,-47.22"/>
<polygon fill="black" stroke="black" points="534.86,-45.54 529.61,-46.27 534.17,-48.97 534.86,-45.54"/>
</g>
<!-- PatternLiteral&#45;&gt;Literal -->
<g id="edge40" class="edge">
<title>PatternLiteral&#45;&gt;Literal</title>
<path fill="none" stroke="black" d="M963.49,-61.58C966.65,-58.72 970.28,-55.42 973.72,-52.3"/>
<polygon fill="black" stroke="black" points="974.59,-53.89 977.12,-49.23 972.24,-51.29 974.59,-53.89"/>
</g>
<!-- PatternConstructor&#45;&gt;Tag -->
<g id="edge41" class="edge">
<title>PatternConstructor&#45;&gt;Tag</title>
<path fill="none" stroke="black" d="M814.22,-61.58C789.95,-56.95 759.74,-51.18 737.05,-46.85"/>
<polygon fill="black" stroke="black" points="737.58,-45.17 732.35,-45.96 736.93,-48.61 737.58,-45.17"/>
</g>
<!-- PatternConstructor&#45;&gt;Pattern -->
<g id="edge42" class="edge">
<title>PatternConstructor&#45;&gt;Pattern</title>
<path fill="none" stroke="black" d="M860.45,-79.21C860.83,-81.41 861.02,-83.87 861,-86.32"/>
<polygon fill="black" stroke="black" points="859.27,-85.94 860.61,-91.07 862.76,-86.23 859.27,-85.94"/>
</g>
<!-- LiteralInt -->
<g id="node27" class="node">
<title>LiteralInt</title>
<path fill="none" stroke="black" d="M938.08,-17C938.08,-17 895.42,-17 895.42,-17 892.58,-17 889.75,-14.17 889.75,-11.33 889.75,-11.33 889.75,-5.67 889.75,-5.67 889.75,-2.83 892.58,0 895.42,0 895.42,0 938.08,0 938.08,0 940.92,0 943.75,-2.83 943.75,-5.67 943.75,-5.67 943.75,-11.33 943.75,-11.33 943.75,-14.17 940.92,-17 938.08,-17"/>
<text xml:space="preserve" text-anchor="middle" x="916.75" y="-5.4" font-family="Helvetica,sans-Serif" font-size="8.00">LiteralInt</text>
</g>
<!-- Literal&#45;&gt;LiteralInt -->
<g id="edge44" class="edge">
<title>Literal&#45;&gt;LiteralInt</title>
<path fill="none" stroke="black" d="M967.62,-30.58C959.6,-27.25 950.16,-23.34 941.61,-19.8"/>
<polygon fill="black" stroke="black" points="942.54,-18.29 937.25,-17.99 941.2,-21.52 942.54,-18.29"/>
</g>
<!-- LiteralString -->
<g id="node28" class="node">
<title>LiteralString</title>
<path fill="none" stroke="black" d="M1010.46,-17C1010.46,-17 963.04,-17 963.04,-17 960.21,-17 957.38,-14.17 957.38,-11.33 957.38,-11.33 957.38,-5.67 957.38,-5.67 957.38,-2.83 960.21,0 963.04,0 963.04,0 1010.46,0 1010.46,0 1013.29,0 1016.12,-2.83 1016.12,-5.67 1016.12,-5.67 1016.12,-11.33 1016.12,-11.33 1016.12,-14.17 1013.29,-17 1010.46,-17"/>
<text xml:space="preserve" text-anchor="middle" x="986.75" y="-5.4" font-family="Helvetica,sans-Serif" font-size="8.00">LiteralString</text>
</g>
<!-- Literal&#45;&gt;LiteralString -->
<g id="edge45" class="edge">
<title>Literal&#45;&gt;LiteralString</title>
<path fill="none" stroke="black" d="M986.75,-30.58C986.75,-28.37 986.75,-25.9 986.75,-23.45"/>
<polygon fill="black" stroke="black" points="988.5,-23.73 986.75,-18.73 985,-23.73 988.5,-23.73"/>
</g>
<!-- LiteralDouble -->
<g id="node29" class="node">
<title>LiteralDouble</title>
<path fill="none" stroke="black" d="M1087.71,-17C1087.71,-17 1035.79,-17 1035.79,-17 1032.96,-17 1030.12,-14.17 1030.12,-11.33 1030.12,-11.33 1030.12,-5.67 1030.12,-5.67 1030.12,-2.83 1032.96,0 1035.79,0 1035.79,0 1087.71,0 1087.71,0 1090.54,0 1093.38,-2.83 1093.38,-5.67 1093.38,-5.67 1093.38,-11.33 1093.38,-11.33 1093.38,-14.17 1090.54,-17 1087.71,-17"/>
<text xml:space="preserve" text-anchor="middle" x="1061.75" y="-5.4" font-family="Helvetica,sans-Serif" font-size="8.00">LiteralDouble</text>
</g>
<!-- Literal&#45;&gt;LiteralDouble -->
<g id="edge46" class="edge">
<title>Literal&#45;&gt;LiteralDouble</title>
<path fill="none" stroke="black" d="M1007.24,-30.58C1015.93,-27.22 1026.15,-23.27 1035.38,-19.7"/>
<polygon fill="black" stroke="black" points="1035.84,-21.4 1039.87,-17.96 1034.57,-18.13 1035.84,-21.4"/>
</g>
<!-- TypeHintVar&#45;&gt;Name -->
<g id="edge51" class="edge">
<title>TypeHintVar&#45;&gt;Name</title>
<path fill="none" stroke="black" d="M452.06,-61.58C459.74,-58.25 468.77,-54.34 476.96,-50.8"/>
<polygon fill="black" stroke="black" points="477.18,-52.61 481.08,-49.02 475.79,-49.4 477.18,-52.61"/>
</g>
<!-- TypeHintConstructor&#45;&gt;DataType -->
<g id="edge52" class="edge">
<title>TypeHintConstructor&#45;&gt;DataType</title>
<path fill="none" stroke="black" d="M57.87,-61.58C62.95,-58.51 68.85,-54.94 74.34,-51.62"/>
<polygon fill="black" stroke="black" points="74.98,-53.28 78.35,-49.2 73.17,-50.29 74.98,-53.28"/>
</g>
</g>
</svg>
