<?xml version="1.0" encoding="UTF-8" standalone="no"?><!DOCTYPE svg PUBLIC "-//W3C//DTD SVG 1.1//EN" "http://www.w3.org/Graphics/SVG/1.1/DTD/svg11.dtd"><!-- Generated by graphviz version 2.40.1 (20161225.0304)
 --><!-- Title: G Pages: 1 --><svg xmlns="http://www.w3.org/2000/svg" xmlns:xlink="http://www.w3.org/1999/xlink" width="518pt" height="692pt" viewBox="0.00 0.00 517.86 692.00">
<g id="graph0" class="graph" transform="scale(1 1) rotate(0) translate(4 688)">
<title>G</title>
<polygon fill="#ffffff" stroke="transparent" points="-4,4 -4,-688 513.8556,-688 513.8556,4 -4,4"/>
<!-- Program -->
<g id="node1" class="node">
<title>Program</title>
<polygon fill="none" stroke="#000000" points="96.1939,-684 31.7753,-684 31.7753,-648 96.1939,-648 96.1939,-684"/>
<text text-anchor="middle" x="63.9846" y="-661.8" font-family="Times,serif" font-size="14.00" fill="#000000">Program</text>
</g>
<!-- TopLevelDefinition -->
<g id="node2" class="node">
<title>TopLevelDefinition</title>
<polygon fill="none" stroke="#000000" points="127.9538,-612 .0154,-612 .0154,-576 127.9538,-576 127.9538,-612"/>
<text text-anchor="middle" x="63.9846" y="-589.8" font-family="Times,serif" font-size="14.00" fill="#000000">TopLevelDefinition</text>
</g>
<!-- Program&#45;&gt;TopLevelDefinition -->
<g id="edge1" class="edge">
<title>Program-&gt;TopLevelDefinition</title>
<path fill="none" stroke="#000000" d="M63.9846,-647.8314C63.9846,-640.131 63.9846,-630.9743 63.9846,-622.4166"/>
<polygon fill="#000000" stroke="#000000" points="67.4847,-622.4132 63.9846,-612.4133 60.4847,-622.4133 67.4847,-622.4132"/>
</g>
<!-- Name -->
<g id="node3" class="node">
<title>Name</title>
<polygon fill="none" stroke="#000000" points="131.9846,-108 77.9846,-108 77.9846,-72 131.9846,-72 131.9846,-108"/>
<text text-anchor="middle" x="104.9846" y="-85.8" font-family="Times,serif" font-size="14.00" fill="#000000">Name</text>
</g>
<!-- TopLevelDefinition&#45;&gt;Name -->
<g id="edge2" class="edge">
<title>TopLevelDefinition-&gt;Name</title>
<path fill="none" stroke="#000000" d="M50.9655,-575.9118C33.319,-549.5658 3.9846,-498.4792 3.9846,-450 3.9846,-450 3.9846,-450 3.9846,-234 3.9846,-184.9451 43.7562,-140.7517 73.3847,-114.6353"/>
<polygon fill="#000000" stroke="#000000" points="75.727,-117.2375 81.049,-108.0763 71.1756,-111.9191 75.727,-117.2375"/>
</g>
<!-- Annotated -->
<g id="node4" class="node">
<title>Annotated</title>
<polygon fill="none" stroke="#000000" points="160.3023,-540 85.6669,-540 85.6669,-504 160.3023,-504 160.3023,-540"/>
<text text-anchor="middle" x="122.9846" y="-517.8" font-family="Times,serif" font-size="14.00" fill="#000000">Annotated</text>
</g>
<!-- TopLevelDefinition&#45;&gt;Annotated -->
<g id="edge3" class="edge">
<title>TopLevelDefinition-&gt;Annotated</title>
<path fill="none" stroke="#000000" d="M78.8728,-575.8314C85.7376,-567.454 94.0147,-557.3531 101.5357,-548.1749"/>
<polygon fill="#000000" stroke="#000000" points="104.2649,-550.3665 107.896,-540.4133 98.8505,-545.9297 104.2649,-550.3665"/>
</g>
<!-- NameChar -->
<g id="node22" class="node">
<title>NameChar</title>
<polygon fill="none" stroke="#000000" points="143.1236,-36 66.8456,-36 66.8456,0 143.1236,0 143.1236,-36"/>
<text text-anchor="middle" x="104.9846" y="-13.8" font-family="Times,serif" font-size="14.00" fill="#000000">NameChar</text>
</g>
<!-- Name&#45;&gt;NameChar -->
<g id="edge28" class="edge">
<title>Name-&gt;NameChar</title>
<path fill="none" stroke="#000000" d="M104.9846,-71.8314C104.9846,-64.131 104.9846,-54.9743 104.9846,-46.4166"/>
<polygon fill="#000000" stroke="#000000" points="108.4847,-46.4132 104.9846,-36.4133 101.4847,-46.4133 108.4847,-46.4132"/>
</g>
<!-- Expr -->
<g id="node5" class="node">
<title>Expr</title>
<polygon fill="none" stroke="#000000" points="174.9846,-468 120.9846,-468 120.9846,-432 174.9846,-432 174.9846,-468"/>
<text text-anchor="middle" x="147.9846" y="-445.8" font-family="Times,serif" font-size="14.00" fill="#000000">Expr</text>
</g>
<!-- Annotated&#45;&gt;Expr -->
<g id="edge4" class="edge">
<title>Annotated-&gt;Expr</title>
<path fill="none" stroke="#000000" d="M129.2932,-503.8314C131.9963,-496.0463 135.2162,-486.7729 138.2156,-478.1347"/>
<polygon fill="#000000" stroke="#000000" points="141.6173,-479.0081 141.5911,-468.4133 135.0046,-476.7119 141.6173,-479.0081"/>
</g>
<!-- Let -->
<g id="node6" class="node">
<title>Let</title>
<polygon fill="none" stroke="#000000" points="90.9846,-396 36.9846,-396 36.9846,-360 90.9846,-360 90.9846,-396"/>
<text text-anchor="middle" x="63.9846" y="-373.8" font-family="Times,serif" font-size="14.00" fill="#000000">Let</text>
</g>
<!-- Expr&#45;&gt;Let -->
<g id="edge5" class="edge">
<title>Expr-&gt;Let</title>
<path fill="none" stroke="#000000" d="M120.8355,-431.8314C109.8406,-423.1337 97.3539,-412.5783 86.8303,-403.1265"/>
<polygon fill="#000000" stroke="#000000" points="88.9623,-400.3331 79.2227,-396.1628 84.2359,-405.4966 88.9623,-400.3331"/>
</g>
<!-- Lambda -->
<g id="node7" class="node">
<title>Lambda</title>
<polygon fill="none" stroke="#000000" points="208.8571,-396 147.1121,-396 147.1121,-360 208.8571,-360 208.8571,-396"/>
<text text-anchor="middle" x="177.9846" y="-373.8" font-family="Times,serif" font-size="14.00" fill="#000000">Lambda</text>
</g>
<!-- Expr&#45;&gt;Lambda -->
<g id="edge6" class="edge">
<title>Expr-&gt;Lambda</title>
<path fill="none" stroke="#000000" d="M149.6025,-431.8314C152.1416,-423.8771 155.8931,-414.369 159.9133,-405.5723"/>
<polygon fill="#000000" stroke="#000000" points="163.1394,-406.9403 164.3364,-396.4133 156.8359,-403.8962 163.1394,-406.9403"/>
</g>
<!-- Operator -->
<g id="node8" class="node">
<title>Operator</title>
<polygon fill="none" stroke="#000000" points="305.7327,-396 240.2365,-396 240.2365,-360 305.7327,-360 305.7327,-396"/>
<text text-anchor="middle" x="272.9846" y="-373.8" font-family="Times,serif" font-size="14.00" fill="#000000">Operator</text>
</g>
<!-- Expr&#45;&gt;Operator -->
<g id="edge7" class="edge">
<title>Expr-&gt;Operator</title>
<path fill="none" stroke="#000000" d="M175.1077,-434.3771C191.9681,-424.6655 213.9501,-412.0039 232.8096,-401.1408"/>
<polygon fill="#000000" stroke="#000000" points="234.584,-404.1579 241.5024,-396.1338 231.0901,-398.0922 234.584,-404.1579"/>
</g>
<!-- Let&#45;&gt;Expr -->
<g id="edge16" class="edge">
<title>Let-&gt;Expr</title>
<path fill="none" stroke="#000000" d="M91.1264,-396.1628C102.1206,-404.8596 114.6073,-415.4149 125.1318,-424.8672"/>
<polygon fill="#000000" stroke="#000000" points="123.0006,-427.6612 132.7402,-431.8314 127.7269,-422.4977 123.0006,-427.6612"/>
</g>
<!-- Definition -->
<g id="node17" class="node">
<title>Definition</title>
<polygon fill="none" stroke="#000000" points="105.5302,-324 32.439,-324 32.439,-288 105.5302,-288 105.5302,-324"/>
<text text-anchor="middle" x="68.9846" y="-301.8" font-family="Times,serif" font-size="14.00" fill="#000000">Definition</text>
</g>
<!-- Let&#45;&gt;Definition -->
<g id="edge15" class="edge">
<title>Let-&gt;Definition</title>
<path fill="none" stroke="#000000" d="M65.2463,-359.8314C65.7811,-352.131 66.4169,-342.9743 67.0112,-334.4166"/>
<polygon fill="#000000" stroke="#000000" points="70.5046,-334.6317 67.7059,-324.4133 63.5214,-334.1467 70.5046,-334.6317"/>
</g>
<!-- Lambda&#45;&gt;Name -->
<g id="edge19" class="edge">
<title>Lambda-&gt;Name</title>
<path fill="none" stroke="#000000" d="M168.3398,-359.9327C163.1738,-349.6392 157.054,-336.3646 152.9846,-324 129.21,-251.7625 114.8662,-162.9451 108.6414,-118.368"/>
<polygon fill="#000000" stroke="#000000" points="112.0847,-117.7138 107.2666,-108.2779 105.1488,-118.6589 112.0847,-117.7138"/>
</g>
<!-- Lambda&#45;&gt;Expr -->
<g id="edge20" class="edge">
<title>Lambda-&gt;Expr</title>
<path fill="none" stroke="#000000" d="M176.2884,-396.4133C173.7246,-404.3991 169.958,-413.9155 165.9324,-422.6975"/>
<polygon fill="#000000" stroke="#000000" points="162.7175,-421.3059 161.5073,-431.8314 169.0172,-424.3579 162.7175,-421.3059"/>
</g>
<!-- BinaryOp -->
<g id="node9" class="node">
<title>BinaryOp</title>
<polygon fill="none" stroke="#000000" points="233.6939,-324 162.2753,-324 162.2753,-288 233.6939,-288 233.6939,-324"/>
<text text-anchor="middle" x="197.9846" y="-301.8" font-family="Times,serif" font-size="14.00" fill="#000000">BinaryOp</text>
</g>
<!-- Operator&#45;&gt;BinaryOp -->
<g id="edge8" class="edge">
<title>Operator-&gt;BinaryOp</title>
<path fill="none" stroke="#000000" d="M254.0589,-359.8314C244.9989,-351.1337 234.0037,-340.5783 224.1581,-331.1265"/>
<polygon fill="#000000" stroke="#000000" points="226.542,-328.5633 216.9042,-324.1628 221.6942,-333.613 226.542,-328.5633"/>
</g>
<!-- PrefixOp -->
<g id="node10" class="node">
<title>PrefixOp</title>
<polygon fill="none" stroke="#000000" points="318.8009,-324 251.1683,-324 251.1683,-288 318.8009,-288 318.8009,-324"/>
<text text-anchor="middle" x="284.9846" y="-301.8" font-family="Times,serif" font-size="14.00" fill="#000000">PrefixOp</text>
</g>
<!-- Operator&#45;&gt;PrefixOp -->
<g id="edge9" class="edge">
<title>Operator-&gt;PrefixOp</title>
<path fill="none" stroke="#000000" d="M276.0127,-359.8314C277.2961,-352.131 278.8222,-342.9743 280.2485,-334.4166"/>
<polygon fill="#000000" stroke="#000000" points="283.724,-334.8526 281.9157,-324.4133 276.8193,-333.7018 283.724,-334.8526"/>
</g>
<!-- Application -->
<g id="node11" class="node">
<title>Application</title>
<polygon fill="none" stroke="#000000" points="419.0829,-324 336.8863,-324 336.8863,-288 419.0829,-288 419.0829,-324"/>
<text text-anchor="middle" x="377.9846" y="-301.8" font-family="Times,serif" font-size="14.00" fill="#000000">Application</text>
</g>
<!-- Operator&#45;&gt;Application -->
<g id="edge10" class="edge">
<title>Operator-&gt;Application</title>
<path fill="none" stroke="#000000" d="M299.4805,-359.8314C312.662,-350.7927 328.7693,-339.7476 342.9557,-330.0198"/>
<polygon fill="#000000" stroke="#000000" points="345.2292,-332.7047 351.4971,-324.1628 341.2705,-326.9316 345.2292,-332.7047"/>
</g>
<!-- Atomic -->
<g id="node18" class="node">
<title>Atomic</title>
<polygon fill="none" stroke="#000000" points="385.9776,-252 327.9916,-252 327.9916,-216 385.9776,-216 385.9776,-252"/>
<text text-anchor="middle" x="356.9846" y="-229.8" font-family="Times,serif" font-size="14.00" fill="#000000">Atomic</text>
</g>
<!-- Application&#45;&gt;Atomic -->
<g id="edge21" class="edge">
<title>Application-&gt;Atomic</title>
<path fill="none" stroke="#000000" d="M372.6854,-287.8314C370.4148,-280.0463 367.71,-270.7729 365.1906,-262.1347"/>
<polygon fill="#000000" stroke="#000000" points="368.5152,-261.0332 362.3551,-252.4133 361.7952,-262.9933 368.5152,-261.0332"/>
</g>
<!-- Literal -->
<g id="node12" class="node">
<title>Literal</title>
<polygon fill="none" stroke="#000000" points="297.9846,-180 243.9846,-180 243.9846,-144 297.9846,-144 297.9846,-180"/>
<text text-anchor="middle" x="270.9846" y="-157.8" font-family="Times,serif" font-size="14.00" fill="#000000">Literal</text>
</g>
<!-- Int -->
<g id="node13" class="node">
<title>Int</title>
<polygon fill="none" stroke="#000000" points="217.9846,-108 163.9846,-108 163.9846,-72 217.9846,-72 217.9846,-108"/>
<text text-anchor="middle" x="190.9846" y="-85.8" font-family="Times,serif" font-size="14.00" fill="#000000">Int</text>
</g>
<!-- Literal&#45;&gt;Int -->
<g id="edge11" class="edge">
<title>Literal-&gt;Int</title>
<path fill="none" stroke="#000000" d="M250.7972,-143.8314C241.1332,-135.1337 229.405,-124.5783 218.903,-115.1265"/>
<polygon fill="#000000" stroke="#000000" points="220.9399,-112.251 211.1655,-108.1628 216.2571,-117.454 220.9399,-112.251"/>
</g>
<!-- Bool -->
<g id="node14" class="node">
<title>Bool</title>
<polygon fill="none" stroke="#000000" points="289.9846,-108 235.9846,-108 235.9846,-72 289.9846,-72 289.9846,-108"/>
<text text-anchor="middle" x="262.9846" y="-85.8" font-family="Times,serif" font-size="14.00" fill="#000000">Bool</text>
</g>
<!-- Literal&#45;&gt;Bool -->
<g id="edge12" class="edge">
<title>Literal-&gt;Bool</title>
<path fill="none" stroke="#000000" d="M268.9659,-143.8314C268.1103,-136.131 267.0929,-126.9743 266.142,-118.4166"/>
<polygon fill="#000000" stroke="#000000" points="269.6135,-117.9656 265.0305,-108.4133 262.6563,-118.7386 269.6135,-117.9656"/>
</g>
<!-- String -->
<g id="node15" class="node">
<title>String</title>
<polygon fill="none" stroke="#000000" points="361.9846,-108 307.9846,-108 307.9846,-72 361.9846,-72 361.9846,-108"/>
<text text-anchor="middle" x="334.9846" y="-85.8" font-family="Times,serif" font-size="14.00" fill="#000000">String</text>
</g>
<!-- Literal&#45;&gt;String -->
<g id="edge13" class="edge">
<title>Literal-&gt;String</title>
<path fill="none" stroke="#000000" d="M287.1345,-143.8314C294.6563,-135.3694 303.7411,-125.1489 311.965,-115.8971"/>
<polygon fill="#000000" stroke="#000000" points="314.5895,-118.2127 318.6173,-108.4133 309.3576,-113.5621 314.5895,-118.2127"/>
</g>
<!-- Double -->
<g id="node16" class="node">
<title>Double</title>
<polygon fill="none" stroke="#000000" points="437.6968,-108 380.2724,-108 380.2724,-72 437.6968,-72 437.6968,-108"/>
<text text-anchor="middle" x="408.9846" y="-85.8" font-family="Times,serif" font-size="14.00" fill="#000000">Double</text>
</g>
<!-- Literal&#45;&gt;Double -->
<g id="edge14" class="edge">
<title>Literal-&gt;Double</title>
<path fill="none" stroke="#000000" d="M298.249,-147.7751C319.0984,-136.8972 348.0913,-121.7704 371.1809,-109.7237"/>
<polygon fill="#000000" stroke="#000000" points="373.1048,-112.6677 380.3516,-104.9389 369.8668,-106.4616 373.1048,-112.6677"/>
</g>
<!-- Definition&#45;&gt;Name -->
<g id="edge17" class="edge">
<title>Definition-&gt;Name</title>
<path fill="none" stroke="#000000" d="M71.992,-287.9555C78.2655,-250.3144 92.7868,-163.1867 100.2972,-118.1246"/>
<polygon fill="#000000" stroke="#000000" points="103.7687,-118.5844 101.9604,-108.1451 96.864,-117.4336 103.7687,-118.5844"/>
</g>
<!-- Definition&#45;&gt;Expr -->
<g id="edge18" class="edge">
<title>Definition-&gt;Expr</title>
<path fill="none" stroke="#000000" d="M79.7448,-324.4137C85.7756,-334.8156 93.3883,-348.0832 99.9846,-360 111.5621,-380.9158 124.2773,-404.8002 133.7108,-422.7057"/>
<polygon fill="#000000" stroke="#000000" points="130.8353,-424.7578 138.5858,-431.9813 137.0316,-421.5011 130.8353,-424.7578"/>
</g>
<!-- Atomic&#45;&gt;Literal -->
<g id="edge23" class="edge">
<title>Atomic-&gt;Literal</title>
<path fill="none" stroke="#000000" d="M335.2832,-215.8314C324.7925,-207.0485 312.0391,-196.3712 300.6652,-186.8489"/>
<polygon fill="#000000" stroke="#000000" points="302.5935,-183.8986 292.6791,-180.1628 298.0999,-189.2659 302.5935,-183.8986"/>
</g>
<!-- Variable -->
<g id="node19" class="node">
<title>Variable</title>
<polygon fill="none" stroke="#000000" points="226.1771,-180 161.7921,-180 161.7921,-144 226.1771,-144 226.1771,-180"/>
<text text-anchor="middle" x="193.9846" y="-157.8" font-family="Times,serif" font-size="14.00" fill="#000000">Variable</text>
</g>
<!-- Atomic&#45;&gt;Variable -->
<g id="edge22" class="edge">
<title>Atomic-&gt;Variable</title>
<path fill="none" stroke="#000000" d="M327.8435,-221.1278C302.1748,-209.7896 264.4897,-193.1434 235.6397,-180.3998"/>
<polygon fill="#000000" stroke="#000000" points="236.7862,-177.08 226.2247,-176.241 233.9578,-183.4832 236.7862,-177.08"/>
</g>
<!-- Constructor -->
<g id="node20" class="node">
<title>Constructor</title>
<polygon fill="none" stroke="#000000" points="398.0829,-180 315.8863,-180 315.8863,-144 398.0829,-144 398.0829,-180"/>
<text text-anchor="middle" x="356.9846" y="-157.8" font-family="Times,serif" font-size="14.00" fill="#000000">Constructor</text>
</g>
<!-- Atomic&#45;&gt;Constructor -->
<g id="edge24" class="edge">
<title>Atomic-&gt;Constructor</title>
<path fill="none" stroke="#000000" d="M356.9846,-215.8314C356.9846,-208.131 356.9846,-198.9743 356.9846,-190.4166"/>
<polygon fill="#000000" stroke="#000000" points="360.4847,-190.4132 356.9846,-180.4133 353.4847,-190.4133 360.4847,-190.4132"/>
</g>
<!-- Parenthesized -->
<g id="node21" class="node">
<title>Parenthesized</title>
<polygon fill="none" stroke="#000000" points="509.727,-180 416.2422,-180 416.2422,-144 509.727,-144 509.727,-180"/>
<text text-anchor="middle" x="462.9846" y="-157.8" font-family="Times,serif" font-size="14.00" fill="#000000">Parenthesized</text>
</g>
<!-- Atomic&#45;&gt;Parenthesized -->
<g id="edge25" class="edge">
<title>Atomic-&gt;Parenthesized</title>
<path fill="none" stroke="#000000" d="M383.7329,-215.8314C397.0399,-206.7927 413.3006,-195.7476 427.6221,-186.0198"/>
<polygon fill="#000000" stroke="#000000" points="429.9393,-188.677 436.2449,-180.1628 426.0061,-182.8864 429.9393,-188.677"/>
</g>
<!-- Variable&#45;&gt;Name -->
<g id="edge26" class="edge">
<title>Variable-&gt;Name</title>
<path fill="none" stroke="#000000" d="M171.5261,-143.8314C160.5641,-134.9632 147.2147,-124.1637 135.3581,-114.5718"/>
<polygon fill="#000000" stroke="#000000" points="137.4117,-111.7313 127.4359,-108.1628 133.0091,-117.1734 137.4117,-111.7313"/>
</g>
<!-- Parenthesized&#45;&gt;Expr -->
<g id="edge27" class="edge">
<title>Parenthesized-&gt;Expr</title>
<path fill="none" stroke="#000000" d="M463.4329,-180.0561C463.3478,-211.9832 459.1378,-279.2493 427.9846,-324 370.9796,-405.8862 247.6534,-435.3871 185.4592,-445.3312"/>
<polygon fill="#000000" stroke="#000000" points="184.6678,-441.911 175.3036,-446.867 185.7145,-448.8323 184.6678,-441.911"/>
</g>
</g>
</svg>